{"glyphs":{"0":{"ha":1124,"x_min":14,"x_max":1110,"o":"m 203 6 q 135 35 169 15 q 74 83 101 56 q 31 146 47 111 q 14 218 14 181 l 14 889 q 35 960 14 924 q 88 1028 56 997 q 159 1077 121 1058 q 232 1096 197 1096 l 903 1096 q 977 1074 940 1096 q 1043 1017 1014 1051 q 1091 943 1072 983 q 1110 867 1110 903 l 1110 218 q 1088 137 1110 176 q 1033 67 1067 97 q 957 19 999 38 q 875 0 915 0 l 232 0 q 219 2 229 0 q 203 6 208 4 m 203 69 q 217 65 208 67 q 226 63 225 63 l 892 63 q 942 78 915 63 q 992 115 969 93 q 1031 164 1015 138 q 1046 213 1046 190 l 1046 878 q 1030 937 1046 908 q 989 988 1014 965 q 934 1025 964 1011 q 875 1039 904 1039 l 254 1039 q 188 1024 221 1039 q 128 983 154 1008 q 87 926 103 958 q 71 861 71 894 l 71 247 q 81 190 71 218 q 109 137 92 161 q 151 95 126 113 q 203 69 175 78 m 232 189 q 204 219 217 200 q 192 258 192 239 l 192 843 q 216 897 192 875 q 272 918 240 918 l 857 918 q 879 913 867 918 q 902 900 892 908 q 919 881 913 892 q 926 861 926 871 l 926 235 q 906 201 926 218 q 868 183 886 183 l 249 183 q 240 185 246 183 q 232 189 235 188 m 267 240 l 851 240 q 863 246 858 240 q 868 258 868 251 l 868 838 q 863 849 868 843 q 857 854 860 854 l 254 854 l 254 253 l 267 240 z "},"1":{"ha":263,"x_min":14,"x_max":249,"o":"m 135 1093 q 173 1086 153 1093 q 210 1066 193 1079 q 238 1035 226 1053 q 249 996 249 1017 l 249 97 q 238 57 249 75 q 209 26 226 39 q 171 7 192 14 q 131 0 150 0 q 94 6 114 0 q 56 24 74 13 q 26 51 39 35 q 14 86 14 67 l 14 1007 q 26 1045 14 1029 q 57 1072 39 1061 q 97 1088 75 1082 q 135 1093 118 1093 m 131 1036 q 92 1023 114 1036 q 71 990 71 1010 l 71 108 q 89 74 71 85 q 126 63 107 63 q 144 64 133 63 q 163 69 154 65 q 179 79 172 72 q 186 97 186 86 l 186 1001 q 180 1016 186 1010 q 165 1027 174 1022 q 146 1034 156 1032 q 131 1036 136 1036 z "},"2":{"ha":1124,"x_min":13,"x_max":1110,"o":"m 867 668 q 850 775 867 731 q 771 843 833 819 q 745 851 763 846 q 725 857 728 857 l 111 857 q 72 869 90 857 q 41 898 54 881 q 20 936 28 915 q 13 975 13 957 q 18 1013 13 992 q 34 1053 24 1035 q 61 1083 44 1071 q 100 1096 78 1096 l 754 1096 q 882 1065 818 1096 q 997 985 946 1035 q 1078 872 1047 935 q 1110 746 1110 810 l 1110 528 q 1101 494 1110 511 q 1077 462 1092 476 q 1046 438 1063 447 q 1013 428 1029 428 l 386 428 q 324 409 349 428 q 284 363 299 390 q 263 301 269 335 q 257 238 257 267 l 1024 238 q 1039 230 1026 238 q 1058 218 1051 222 q 1097 174 1085 197 q 1110 118 1110 150 q 1103 78 1110 99 q 1083 40 1096 57 q 1053 11 1071 22 q 1013 0 1035 0 l 111 0 q 80 8 97 0 q 48 28 63 15 q 24 56 33 40 q 14 86 14 71 l 14 310 q 33 408 14 357 q 85 504 53 458 q 158 585 117 550 q 243 636 199 621 q 269 645 253 640 q 303 656 286 650 q 332 665 319 661 q 347 668 344 668 l 867 668 l 867 668 m 71 108 q 82 81 74 99 q 106 63 90 63 l 1013 63 q 1029 69 1022 63 q 1040 85 1036 75 q 1046 105 1044 94 q 1047 122 1047 115 q 1035 160 1047 140 q 1000 181 1024 181 l 194 181 q 194 199 194 186 q 193 225 193 211 q 192 253 193 240 q 192 269 192 265 q 210 352 193 313 q 255 422 226 392 q 322 472 283 453 q 404 490 360 490 l 1013 490 q 1033 505 1019 490 q 1046 528 1046 519 l 1046 763 q 1015 868 1046 818 q 936 956 983 918 q 832 1017 889 994 q 725 1039 775 1039 l 122 1039 q 86 1020 101 1039 q 71 982 71 1001 q 73 966 71 976 q 80 946 75 956 q 91 928 85 936 q 106 921 97 921 l 714 921 q 785 906 749 921 q 853 867 822 892 q 905 810 885 843 q 926 740 925 778 q 926 715 926 733 q 925 675 925 696 q 924 637 925 656 q 924 611 924 618 l 381 611 q 328 603 360 611 q 278 585 297 594 q 172 517 213 557 q 110 426 132 476 q 79 317 88 376 q 71 194 71 258 l 71 108 l 71 108 z "},"3":{"ha":1124,"x_min":13,"x_max":1110,"o":"m 13 115 q 18 153 13 132 q 35 192 24 174 q 63 224 47 211 q 100 238 79 238 l 725 238 q 778 251 753 238 q 824 287 804 265 q 856 335 844 308 q 868 390 868 363 l 868 717 q 856 768 868 743 q 823 813 843 793 q 777 845 803 833 q 725 857 751 857 l 111 857 q 72 869 90 857 q 41 898 54 881 q 20 936 28 915 q 13 975 13 957 q 18 1013 13 992 q 34 1053 24 1035 q 61 1083 44 1071 q 100 1096 78 1096 l 754 1096 q 882 1065 818 1096 q 997 985 946 1035 q 1078 872 1047 935 q 1110 746 1110 810 l 1110 367 q 1081 235 1110 301 q 1003 117 1051 169 q 891 33 954 65 q 760 0 828 0 l 111 0 q 72 11 90 0 q 41 39 54 22 q 20 76 28 56 q 13 115 13 96 m 71 121 q 73 106 71 115 q 79 86 75 96 q 90 69 83 76 q 106 63 97 63 l 771 63 q 868 90 819 63 q 956 159 917 117 q 1021 252 996 201 q 1046 350 1046 303 l 1046 763 q 1015 868 1046 818 q 936 956 983 918 q 832 1017 889 994 q 725 1039 775 1039 l 122 1039 q 86 1020 101 1039 q 71 982 71 1001 q 73 966 71 976 q 80 946 75 956 q 91 928 85 936 q 106 921 97 921 l 714 921 q 785 906 747 921 q 853 867 822 892 q 906 810 885 843 q 926 740 926 778 l 926 367 q 910 306 926 339 q 869 246 894 274 q 814 199 844 218 q 754 181 783 181 l 122 181 q 87 160 103 181 q 71 121 71 139 m 13 544 q 18 583 13 561 q 34 622 24 604 q 61 653 44 640 q 100 665 78 665 l 736 665 q 772 653 756 665 q 799 623 788 640 q 817 585 811 606 q 824 547 824 564 q 817 507 824 528 q 797 469 810 486 q 765 442 783 453 q 725 431 747 431 l 111 431 q 72 441 90 431 q 41 468 54 451 q 20 505 28 485 q 13 544 13 525 m 71 551 q 73 535 71 544 q 79 516 75 525 q 90 500 83 507 q 106 493 97 493 l 725 493 q 743 499 736 493 q 753 515 750 506 q 758 535 757 525 q 760 553 760 546 q 749 590 760 572 q 714 608 738 608 l 122 608 q 86 590 101 608 q 71 551 71 571 z "},"4":{"ha":1124,"x_min":14,"x_max":1110,"o":"m 994 1096 q 1034 1089 1014 1096 q 1071 1069 1054 1082 q 1099 1038 1088 1056 q 1110 999 1110 1019 l 1110 97 q 1099 57 1110 75 q 1070 26 1088 39 q 1032 7 1053 14 q 992 0 1011 0 q 955 6 975 0 q 917 24 935 13 q 888 51 900 35 q 875 86 875 67 l 875 1010 q 888 1048 875 1032 q 918 1074 900 1064 q 957 1090 936 1085 q 994 1096 978 1096 m 992 1039 q 953 1026 975 1039 q 932 993 932 1013 l 932 108 q 950 74 932 85 q 988 63 968 63 q 1005 64 994 63 q 1024 69 1015 65 q 1040 79 1033 72 q 1046 97 1046 86 l 1046 1004 q 1040 1019 1046 1013 q 1024 1030 1033 1025 q 1006 1037 1015 1035 q 992 1039 997 1039 m 135 1096 q 173 1088 153 1096 q 210 1068 193 1081 q 240 1038 228 1056 q 251 999 251 1019 l 251 671 q 264 617 251 643 q 297 571 276 592 q 344 538 318 550 q 399 525 371 525 l 736 525 q 752 517 739 525 q 771 504 765 510 q 810 460 797 483 q 824 404 824 438 q 817 364 824 385 q 797 326 810 343 q 765 299 783 310 q 725 288 747 288 l 364 288 q 305 297 338 288 q 249 315 272 306 q 106 424 158 353 q 25 585 53 494 q 18 615 22 594 q 14 643 14 635 l 14 1010 q 26 1048 14 1032 q 57 1074 39 1064 q 97 1090 75 1085 q 135 1096 118 1096 m 132 1039 q 92 1026 114 1039 q 71 993 71 1013 l 71 671 q 93 565 71 621 q 153 460 115 508 q 242 381 192 413 q 347 350 292 350 l 725 350 q 743 356 736 350 q 753 372 750 363 q 758 392 757 382 q 760 408 760 401 q 749 448 760 428 q 714 468 738 468 l 369 468 q 301 490 333 468 q 243 545 268 513 q 203 617 218 578 q 189 689 189 656 l 189 1004 q 182 1019 189 1013 q 165 1029 175 1025 q 147 1036 156 1033 q 132 1039 138 1039 z "},"5":{"ha":1124,"x_min":13,"x_max":1110,"o":"m 13 115 q 18 153 13 132 q 35 192 24 174 q 63 224 47 211 q 100 238 79 238 q 727 240 719 238 q 745 246 735 243 q 765 252 756 249 q 782 258 775 256 q 828 286 811 268 q 853 327 844 304 q 865 376 863 350 q 867 428 867 403 l 111 428 q 81 437 97 428 q 49 459 64 446 q 24 488 35 472 q 14 517 14 503 l 14 1010 q 22 1038 14 1022 q 44 1066 31 1053 q 72 1088 57 1079 q 100 1096 88 1096 l 1024 1096 q 1059 1083 1043 1096 q 1086 1053 1075 1071 q 1103 1015 1097 1036 q 1110 978 1110 994 q 1103 938 1110 958 q 1083 899 1096 917 q 1051 869 1069 881 q 1013 857 1033 857 l 254 857 l 254 668 l 1024 668 q 1051 657 1036 668 q 1078 631 1065 646 q 1101 598 1092 615 q 1110 568 1110 581 l 1110 344 q 1076 215 1110 278 q 988 105 1042 153 q 867 28 933 57 q 736 0 800 0 l 111 0 q 72 11 90 0 q 41 39 54 22 q 20 76 28 56 q 13 115 13 96 m 71 121 q 73 106 71 115 q 79 86 75 96 q 90 69 83 76 q 106 63 97 63 l 754 63 q 851 86 800 63 q 946 149 903 110 q 1017 236 989 188 q 1046 333 1046 285 l 1046 574 q 1040 586 1046 579 q 1027 599 1035 593 q 1012 608 1019 604 q 1000 611 1004 611 l 192 611 l 192 921 l 1013 921 q 1029 928 1022 921 q 1040 945 1036 935 q 1046 965 1044 956 q 1047 982 1047 975 q 1035 1020 1047 1001 q 1000 1039 1024 1039 l 122 1039 q 89 1024 107 1039 q 71 993 71 1008 l 71 539 l 76 522 q 89 503 79 515 q 106 490 99 490 l 926 490 l 926 356 q 908 294 926 325 q 860 238 889 263 q 799 197 832 213 q 736 181 765 181 l 122 181 q 87 160 103 181 q 71 121 71 139 z "},"6":{"ha":1124,"x_min":14,"x_max":1110,"o":"m 1110 978 q 1103 938 1110 958 q 1083 899 1096 917 q 1051 869 1069 881 q 1013 857 1033 857 l 393 857 q 348 845 372 857 q 303 815 324 833 q 268 774 282 796 q 254 729 254 751 l 254 385 q 266 330 254 356 q 298 284 278 304 q 344 252 318 264 q 399 240 371 240 l 719 240 q 782 255 754 240 q 829 292 810 269 q 859 345 849 315 q 869 407 869 375 q 771 557 869 518 q 745 565 763 560 q 725 571 728 571 l 399 571 q 360 583 378 571 q 328 612 342 594 q 308 650 315 629 q 300 689 300 671 q 306 726 300 706 q 322 765 311 747 q 348 796 332 783 q 386 808 364 808 l 754 808 q 819 798 785 808 q 881 775 853 788 q 1052 624 994 721 q 1110 401 1110 528 q 846 24 1110 125 q 792 7 821 14 q 736 0 764 0 l 364 0 q 305 9 338 0 q 249 29 272 18 q 106 137 158 65 q 25 299 53 208 q 18 328 22 308 q 14 356 14 349 l 14 757 q 47 878 14 818 q 130 988 79 939 q 242 1066 181 1036 q 364 1096 304 1096 l 1024 1096 q 1059 1083 1043 1096 q 1086 1053 1075 1071 q 1103 1015 1097 1036 q 1110 978 1110 994 m 1047 982 q 1035 1020 1047 1001 q 1000 1039 1024 1039 l 399 1039 q 274 1013 333 1039 q 170 942 215 986 q 98 840 125 899 q 71 717 71 781 l 71 385 q 93 278 71 335 q 153 174 115 222 q 242 94 192 126 q 347 63 292 63 l 754 63 q 851 86 800 63 q 946 149 903 110 q 1017 236 989 188 q 1046 333 1046 285 l 1046 476 q 1015 581 1046 531 q 936 669 983 631 q 833 729 889 707 q 725 751 776 751 l 410 751 q 373 733 389 751 q 357 694 357 714 q 359 679 357 689 q 366 659 361 669 q 378 641 371 649 q 393 633 385 633 q 721 632 714 633 q 737 628 728 631 q 756 624 746 626 q 771 619 765 621 q 888 542 850 597 q 926 407 926 486 q 898 283 926 336 q 800 201 869 229 q 769 190 792 197 q 736 183 747 183 l 369 183 q 298 204 331 183 q 242 258 265 225 q 205 328 218 290 q 192 401 192 367 l 192 706 q 210 788 192 749 q 258 856 228 826 q 327 903 288 886 q 410 921 367 921 l 1013 921 q 1029 928 1022 921 q 1040 945 1036 935 q 1046 965 1044 956 q 1047 982 1047 975 z "},"7":{"ha":1124,"x_min":13,"x_max":1110,"o":"m 443 115 q 443 142 443 131 q 450 167 443 153 l 793 857 l 111 857 q 72 869 90 857 q 41 898 54 881 q 20 936 28 915 q 13 975 13 957 q 18 1013 13 992 q 34 1053 24 1035 q 61 1083 44 1071 q 100 1096 78 1096 l 1024 1096 q 1059 1083 1043 1096 q 1086 1053 1075 1071 q 1103 1015 1097 1036 q 1110 978 1110 994 q 1110 956 1110 967 q 1104 935 1110 946 l 663 51 q 619 12 647 24 q 561 0 590 0 q 478 33 513 0 q 443 115 443 65 m 501 122 q 515 78 501 94 q 557 63 529 63 q 588 66 574 63 q 611 86 601 69 l 1046 958 q 1047 967 1047 958 q 1047 979 1047 975 q 1036 1019 1047 999 q 1000 1039 1025 1039 l 122 1039 q 86 1020 101 1039 q 71 982 71 1001 q 73 966 71 976 q 80 946 75 956 q 91 928 85 936 q 106 921 97 921 l 892 921 l 501 132 l 501 122 l 501 122 z "},"8":{"ha":1124,"x_min":14,"x_max":1110,"o":"m 14 343 q 18 414 14 385 q 38 482 22 443 q 45 499 39 485 q 54 517 51 513 q 65 533 56 519 q 76 550 75 547 q 78 551 78 550 l 78 553 q 76 557 78 556 q 31 661 49 613 q 14 774 14 710 q 60 952 14 874 q 197 1072 106 1031 q 245 1092 219 1082 q 294 1101 271 1101 l 822 1101 q 840 1099 828 1101 q 865 1092 851 1096 q 890 1085 878 1089 q 908 1078 901 1081 q 1058 958 1007 1040 q 1110 771 1110 875 q 1106 700 1110 735 q 1086 631 1101 665 q 1076 613 1083 624 q 1063 592 1069 603 q 1051 572 1056 582 q 1046 553 1046 561 l 1046 550 q 1091 449 1072 496 q 1110 342 1110 403 q 1088 217 1110 278 q 1026 110 1065 157 q 930 34 986 63 q 806 6 874 6 l 294 6 q 249 14 276 6 q 208 29 222 22 q 63 155 111 69 q 14 343 14 240 m 71 347 q 86 257 71 306 q 129 166 101 208 q 196 96 157 124 q 283 68 235 68 l 822 68 q 837 70 828 68 q 856 76 846 72 q 874 82 865 79 q 886 86 882 85 q 1012 188 976 126 q 1047 342 1047 249 q 1047 353 1047 344 q 1047 371 1047 361 q 1047 389 1047 381 q 1046 401 1046 397 q 1014 484 1036 450 q 960 557 992 518 q 1000 606 983 582 q 1027 654 1017 629 q 1042 708 1038 679 q 1047 771 1047 736 q 1047 783 1047 775 q 1047 801 1047 792 q 1047 819 1047 811 q 1046 832 1046 828 q 1015 914 1038 875 q 958 982 992 953 q 882 1028 924 1011 q 794 1044 840 1044 l 324 1044 q 224 1022 269 1044 q 144 963 178 1000 q 90 877 110 925 q 71 778 71 829 q 78 715 71 743 q 96 660 85 686 q 123 608 107 633 q 157 557 139 583 q 158 555 157 556 q 158 553 158 554 q 158 552 158 553 q 157 550 157 551 q 94 456 117 506 q 71 347 71 407 m 192 340 q 203 399 192 371 q 233 447 214 426 q 281 481 253 468 q 340 493 308 493 l 782 493 q 845 481 818 493 q 890 446 872 468 q 917 395 908 424 q 926 336 926 367 q 903 249 926 282 q 828 194 879 217 q 817 191 825 193 q 806 189 808 189 l 307 189 q 258 204 279 189 q 222 242 238 219 q 199 292 207 265 q 192 340 192 318 m 254 343 q 274 276 254 306 q 335 246 293 246 l 782 246 q 846 274 822 246 q 869 339 869 301 q 851 401 869 371 q 794 431 832 431 l 329 431 q 274 403 293 431 q 254 343 254 375 m 192 771 q 203 829 192 801 q 233 878 214 857 q 281 911 253 899 q 340 924 308 924 l 782 924 q 845 911 818 924 q 890 876 872 899 q 917 826 908 854 q 926 765 926 797 q 903 678 926 711 q 828 625 879 646 q 817 622 825 624 q 806 619 808 619 l 307 619 q 258 635 279 619 q 222 673 238 650 q 199 722 207 696 q 192 771 192 749 m 254 774 q 274 706 254 736 q 335 676 293 676 l 782 676 q 846 704 822 676 q 869 768 869 732 q 851 830 869 800 q 794 860 832 860 l 329 860 q 274 833 293 860 q 254 774 254 806 z "},"9":{"ha":1124,"x_min":13,"x_max":1110,"o":"m 13 121 q 18 158 13 138 q 35 198 24 179 q 63 230 47 217 q 100 243 79 243 l 719 243 q 774 256 747 243 q 822 289 801 268 q 856 336 843 310 q 868 390 868 363 l 868 711 q 858 763 868 736 q 830 810 847 789 q 788 846 813 832 q 736 860 764 860 l 393 860 q 333 846 360 860 q 290 809 307 832 q 263 758 272 786 q 254 700 254 729 q 272 610 254 651 q 340 550 290 568 q 358 544 347 547 q 378 538 368 542 q 404 531 389 535 l 736 531 q 752 523 739 531 q 771 510 765 515 q 810 466 797 489 q 824 410 824 443 q 817 369 824 390 q 797 332 810 349 q 765 304 783 315 q 725 293 747 293 l 381 293 q 270 313 322 293 q 174 366 218 332 q 94 444 129 400 q 38 539 60 489 q 31 557 35 544 q 23 583 26 569 q 17 609 19 597 q 14 625 14 621 l 14 768 q 47 887 14 828 q 132 994 81 946 q 245 1072 183 1042 q 364 1101 307 1101 l 771 1101 q 897 1067 836 1101 q 1006 980 958 1033 q 1081 862 1053 926 q 1110 735 1110 797 l 1110 356 q 1076 223 1110 286 q 990 111 1043 160 q 869 34 936 63 q 736 6 803 6 l 111 6 q 72 17 90 6 q 41 44 54 28 q 20 81 28 61 q 13 121 13 101 m 71 126 q 73 111 71 121 q 79 92 75 101 q 90 75 83 82 q 106 68 97 68 l 754 68 q 853 92 801 68 q 948 156 906 117 q 1018 244 990 194 q 1046 344 1046 294 l 1046 751 q 1042 774 1046 754 q 1035 803 1038 793 q 994 897 1022 853 q 926 974 965 940 q 838 1026 886 1007 q 736 1044 789 1044 l 399 1044 q 267 1016 326 1044 q 163 940 207 988 q 95 828 119 892 q 71 697 71 765 q 124 504 71 586 q 278 378 176 422 q 296 372 283 375 q 322 365 308 368 q 347 358 335 361 q 364 356 358 356 l 725 356 q 743 362 736 356 q 753 378 750 368 q 758 397 757 388 q 760 414 760 407 q 749 453 760 433 q 714 474 738 474 l 381 474 q 362 479 379 474 q 335 488 344 485 q 228 567 264 511 q 192 697 192 624 q 208 784 192 743 q 252 856 224 825 q 321 906 281 888 q 410 924 361 924 l 719 924 q 814 901 767 924 q 886 838 861 878 q 897 816 890 829 q 910 788 904 803 q 922 760 917 774 q 926 735 926 746 l 926 361 q 908 299 926 331 q 860 243 889 268 q 799 202 832 218 q 736 186 765 186 l 122 186 q 87 165 103 186 q 71 126 71 144 z "}," ":{"ha":694,"x_min":0,"x_max":0,"o":""},"!":{"ha":263,"x_min":13,"x_max":249,"o":"m 13 119 q 45 208 13 176 q 135 240 78 240 q 216 206 183 240 q 249 122 249 171 q 215 39 249 72 q 131 6 182 6 q 85 14 107 6 q 48 38 64 22 q 22 74 32 53 q 13 119 13 94 m 71 126 q 85 83 71 99 q 126 68 100 68 q 186 128 186 68 q 172 167 186 151 q 131 183 157 183 q 89 167 107 183 q 71 126 71 150 m 135 1099 q 173 1092 153 1099 q 210 1072 193 1085 q 238 1040 226 1058 q 249 1001 249 1022 l 249 389 q 238 349 249 367 q 209 318 226 331 q 171 299 192 306 q 131 292 150 292 q 94 298 114 292 q 56 315 74 304 q 26 342 39 326 q 14 378 14 358 l 14 1013 q 26 1051 14 1035 q 57 1077 39 1067 q 97 1093 75 1088 q 135 1099 118 1099 m 131 1042 q 92 1028 114 1042 q 71 996 71 1015 l 71 400 q 89 365 71 376 q 126 354 107 354 q 144 356 133 354 q 163 360 154 357 q 179 371 172 364 q 186 389 186 378 l 186 1007 q 180 1022 186 1015 q 165 1033 174 1028 q 146 1040 156 1038 q 131 1042 136 1042 z "},",":{"ha":263,"x_min":14,"x_max":249,"o":"m 135 240 q 173 233 153 240 q 210 213 193 226 q 238 182 226 200 q 249 143 249 164 l 249 -40 q 238 -81 249 -62 q 209 -111 226 -99 q 171 -131 192 -124 q 131 -137 150 -137 q 94 -131 114 -137 q 56 -114 74 -125 q 26 -87 39 -103 q 14 -51 14 -71 l 14 154 q 26 192 14 176 q 57 219 39 208 q 97 235 75 229 q 135 240 118 240 m 131 183 q 92 170 114 183 q 71 138 71 157 l 71 -29 q 89 -64 71 -53 q 126 -75 107 -75 q 144 -74 133 -75 q 163 -69 154 -72 q 179 -58 172 -65 q 186 -40 186 -51 l 186 149 q 180 163 186 157 q 165 174 174 169 q 146 181 156 179 q 131 183 136 183 z "},".":{"ha":263,"x_min":13,"x_max":249,"o":"m 13 119 q 45 208 13 176 q 135 240 78 240 q 216 206 183 240 q 249 122 249 171 q 215 39 249 72 q 131 6 182 6 q 85 14 107 6 q 48 38 64 22 q 22 74 32 53 q 13 119 13 94 m 71 126 q 85 83 71 99 q 126 68 100 68 q 186 128 186 68 q 172 167 186 151 q 131 183 157 183 q 89 167 107 183 q 71 126 71 150 z "},"?":{"ha":1124,"x_min":13,"x_max":1110,"o":"m 443 121 q 476 209 443 176 q 565 242 508 242 q 647 207 614 242 q 679 124 679 172 q 646 39 679 72 q 561 6 613 6 q 478 38 513 6 q 443 121 443 71 m 501 126 q 516 83 501 99 q 557 68 531 68 q 617 128 617 68 q 602 168 617 153 q 561 183 588 183 q 519 167 538 183 q 501 126 501 151 m 443 407 q 449 445 443 424 q 466 485 454 467 q 494 517 478 504 q 531 531 510 531 q 727 533 719 531 q 745 538 735 535 q 765 544 756 542 q 782 550 775 547 q 849 610 829 567 q 869 697 869 653 q 847 791 869 753 q 771 849 824 829 q 745 857 763 851 q 725 863 728 863 l 111 863 q 72 874 90 863 q 41 903 54 886 q 20 942 28 921 q 13 981 13 963 q 18 1019 13 997 q 34 1058 24 1040 q 61 1089 44 1076 q 100 1101 78 1101 l 754 1101 q 819 1091 785 1101 q 881 1067 853 1081 q 1051 918 993 1014 q 1110 697 1110 822 q 1074 512 1110 589 q 974 385 1038 435 q 825 314 911 336 q 639 292 739 292 q 619 292 633 292 q 590 292 607 292 q 561 292 575 292 q 542 293 547 293 q 471 332 499 299 q 443 407 443 365 m 501 414 q 503 397 501 407 q 510 378 506 388 q 521 363 514 369 q 536 356 528 356 l 754 356 q 851 379 800 356 q 946 442 903 403 q 1017 528 989 481 q 1046 625 1046 576 l 1046 768 q 1015 874 1046 824 q 936 962 983 924 q 832 1022 889 1000 q 725 1044 775 1044 l 122 1044 q 86 1026 101 1044 q 71 988 71 1007 q 73 972 71 982 q 80 951 75 961 q 91 934 85 942 q 106 926 97 926 q 721 925 714 926 q 737 922 728 924 q 756 917 746 919 q 771 913 765 914 q 889 833 851 889 q 926 697 926 778 q 898 574 926 628 q 800 493 869 519 q 783 488 793 490 q 763 481 774 485 q 745 476 753 478 q 736 474 738 474 l 553 474 q 517 453 533 474 q 501 414 501 432 z "},"A":{"ha":1124,"x_min":14,"x_max":1110,"o":"m 992 0 q 936 13 960 0 q 892 51 913 25 q 879 71 888 58 q 871 86 871 83 l 871 428 l 399 428 q 360 440 378 428 q 328 469 342 451 q 308 506 315 486 q 300 544 300 526 q 306 583 300 561 q 322 623 311 604 q 349 655 333 642 q 386 668 365 668 l 867 668 q 849 774 867 732 q 771 843 832 815 q 763 847 769 844 q 754 849 757 849 q 740 853 749 851 q 731 854 732 854 l 381 854 q 334 841 357 854 q 293 808 311 828 q 263 763 275 788 q 251 717 251 739 l 251 97 q 240 57 251 75 q 210 26 228 39 q 172 7 193 14 q 132 0 150 0 q 94 6 115 0 q 56 24 74 13 q 26 51 39 35 q 14 86 14 67 l 14 740 q 43 861 14 799 q 119 976 72 924 q 226 1062 167 1028 q 347 1096 286 1096 l 754 1096 q 881 1065 818 1096 q 995 985 944 1035 q 1078 872 1046 935 q 1110 746 1110 810 l 1110 97 q 1099 57 1110 75 q 1070 26 1088 39 q 1032 7 1053 14 q 992 0 1011 0 m 988 63 q 1005 64 994 63 q 1024 69 1015 65 q 1040 79 1033 72 q 1046 97 1046 86 l 1046 763 q 1015 868 1046 818 q 936 956 983 918 q 832 1017 889 994 q 725 1039 775 1039 l 381 1039 q 262 1010 318 1039 q 163 936 206 982 q 96 831 121 890 q 71 711 71 772 l 71 108 q 90 74 71 85 q 128 63 108 63 q 144 64 133 63 q 165 69 154 65 q 182 81 175 74 q 189 97 189 88 l 189 700 q 206 784 189 744 q 253 853 224 824 q 322 901 283 883 q 404 918 361 918 l 714 918 q 787 905 750 918 q 853 867 824 892 q 903 810 883 843 q 926 740 924 778 q 926 714 926 733 q 925 676 926 696 q 923 637 924 656 q 922 611 922 618 l 410 611 q 373 590 389 611 q 357 551 357 569 q 359 536 357 546 q 366 516 361 526 q 378 498 371 506 q 393 490 385 490 l 929 490 l 929 108 q 949 74 929 85 q 988 63 969 63 z "},"B":{"ha":1124,"x_min":13,"x_max":1110,"o":"m 13 115 q 18 153 13 132 q 35 192 24 174 q 63 224 47 211 q 100 238 79 238 l 782 238 q 847 269 824 238 q 869 336 869 300 q 864 367 869 350 q 849 397 858 383 q 825 419 839 410 q 794 428 811 428 l 399 428 q 360 440 378 428 q 328 469 342 451 q 308 506 315 486 q 300 544 300 526 q 306 583 300 561 q 322 623 311 604 q 349 655 333 642 q 386 668 365 668 l 782 668 q 847 699 824 668 q 869 767 869 731 q 850 826 869 799 q 794 854 831 854 l 251 854 l 251 385 q 240 344 251 363 q 210 313 228 326 q 172 293 193 300 q 132 286 150 286 q 94 292 115 286 q 56 310 74 299 q 26 338 39 322 q 14 372 14 353 l 14 1010 q 22 1038 14 1022 q 44 1066 31 1053 q 72 1088 57 1079 q 100 1096 88 1096 l 822 1096 q 840 1093 828 1096 q 865 1087 851 1090 q 890 1079 878 1083 q 908 1072 901 1075 q 1060 949 1010 1033 q 1110 760 1110 865 q 1105 691 1110 724 q 1086 625 1100 658 q 1076 608 1083 618 q 1063 587 1069 597 q 1051 566 1056 576 q 1046 547 1046 556 l 1046 544 q 1072 492 1060 517 q 1092 441 1083 467 q 1105 388 1100 415 q 1110 329 1110 361 q 1056 142 1110 225 q 903 24 1003 60 q 858 8 883 17 q 811 0 833 0 l 111 0 q 72 11 90 0 q 41 39 54 22 q 20 76 28 56 q 13 115 13 96 m 71 121 q 73 106 71 115 q 79 86 75 96 q 90 69 83 76 q 106 63 97 63 l 822 63 q 837 65 828 63 q 856 70 846 67 q 874 76 865 74 q 886 81 882 79 q 1009 181 971 117 q 1047 336 1047 246 q 1047 347 1047 339 q 1047 365 1047 356 q 1047 383 1047 375 q 1046 396 1046 392 q 1014 478 1036 444 q 960 551 992 513 q 1028 649 1010 594 q 1047 765 1047 703 q 1047 778 1047 769 q 1047 796 1047 786 q 1047 814 1047 806 q 1046 826 1046 822 q 1014 908 1038 869 q 957 976 990 947 q 882 1022 924 1006 q 794 1039 840 1039 l 122 1039 q 89 1024 107 1039 q 71 993 71 1008 l 71 396 q 90 360 71 372 q 128 349 108 349 q 144 350 133 349 q 165 356 154 351 q 182 367 175 360 q 189 385 189 374 l 189 918 l 782 918 q 845 906 818 918 q 890 871 872 893 q 917 820 908 849 q 926 760 926 792 q 903 674 926 704 q 828 619 879 643 q 815 614 824 617 q 806 611 807 611 l 410 611 q 373 590 389 611 q 357 551 357 569 q 359 536 357 546 q 366 516 361 526 q 378 498 371 506 q 393 490 385 490 l 782 490 q 790 489 783 490 q 806 485 797 488 q 822 481 814 483 q 835 476 831 478 q 907 420 888 457 q 926 331 926 383 q 903 243 926 274 q 828 189 879 213 q 815 183 824 186 q 806 181 807 181 l 122 181 q 87 160 103 181 q 71 121 71 139 z "},"C":{"ha":1124,"x_min":14,"x_max":1110,"o":"m 1110 978 q 1103 938 1110 958 q 1083 899 1096 917 q 1051 869 1069 881 q 1013 857 1033 857 l 393 857 q 348 846 372 857 q 303 816 324 835 q 268 774 282 797 q 254 729 254 751 l 254 385 q 266 331 254 357 q 298 283 278 304 q 344 250 318 263 q 399 238 371 238 l 1024 238 q 1039 230 1026 238 q 1058 218 1051 222 q 1097 174 1085 197 q 1110 118 1110 150 q 1103 78 1110 99 q 1083 40 1096 57 q 1053 11 1071 22 q 1013 0 1035 0 l 364 0 q 305 9 338 0 q 249 29 272 18 q 106 138 158 67 q 25 299 53 208 q 18 328 22 308 q 14 356 14 349 l 14 757 q 46 878 14 817 q 128 987 78 939 q 242 1065 179 1035 q 364 1096 304 1096 l 1024 1096 q 1059 1083 1043 1096 q 1086 1053 1075 1071 q 1103 1015 1097 1036 q 1110 978 1110 994 m 1047 982 q 1035 1020 1047 1001 q 1000 1039 1024 1039 l 399 1039 q 277 1013 336 1039 q 172 944 218 988 q 99 844 126 901 q 71 722 71 786 l 71 385 q 93 278 71 335 q 153 174 115 222 q 242 94 192 126 q 347 63 292 63 l 1013 63 q 1029 69 1022 63 q 1040 85 1036 75 q 1046 105 1044 94 q 1047 122 1047 115 q 1035 160 1047 140 q 1000 181 1024 181 l 369 181 q 299 203 332 181 q 242 258 267 225 q 205 329 218 290 q 192 401 192 368 l 192 706 q 237 834 192 782 q 353 907 282 886 q 368 911 358 908 q 387 916 378 914 q 410 921 396 918 l 1013 921 q 1029 928 1022 921 q 1040 945 1036 935 q 1046 965 1044 956 q 1047 982 1047 975 z "},"D":{"ha":1124,"x_min":13,"x_max":1110,"o":"m 13 115 q 18 153 13 132 q 35 192 24 174 q 63 224 47 211 q 100 238 79 238 l 719 238 q 774 250 747 238 q 822 283 801 263 q 856 331 843 304 q 868 385 868 357 l 868 706 q 858 758 868 732 q 830 806 847 785 q 788 841 813 828 q 736 854 764 854 l 251 854 l 251 385 q 240 344 251 363 q 210 313 228 326 q 172 293 193 300 q 132 286 150 286 q 94 292 115 286 q 56 310 74 299 q 26 338 39 322 q 14 372 14 353 l 14 1010 q 22 1038 14 1022 q 44 1066 31 1053 q 72 1088 57 1079 q 100 1096 88 1096 l 776 1096 q 858 1075 815 1096 q 932 1039 900 1054 q 1002 983 969 1018 q 1058 906 1035 949 q 1096 817 1082 864 q 1110 729 1110 771 l 1110 344 q 1075 215 1110 278 q 986 105 1040 153 q 866 28 932 57 q 736 0 800 0 l 111 0 q 72 11 90 0 q 41 39 54 22 q 20 76 28 56 q 13 115 13 96 m 71 121 q 73 106 71 115 q 79 86 75 96 q 90 69 83 76 q 106 63 97 63 l 754 63 q 851 86 800 63 q 946 149 903 110 q 1017 236 989 188 q 1046 333 1046 285 l 1046 746 q 1019 853 1046 800 q 948 947 992 906 q 851 1014 904 989 q 743 1039 797 1039 l 122 1039 q 89 1024 107 1039 q 71 993 71 1008 l 71 396 q 90 360 71 372 q 128 349 108 349 q 144 350 133 349 q 165 356 154 351 q 182 367 175 360 q 189 385 189 374 l 189 918 l 719 918 q 794 903 757 918 q 860 863 831 889 q 908 803 889 838 q 926 729 926 768 l 926 356 q 908 294 926 325 q 860 238 889 263 q 799 197 832 213 q 736 181 765 181 l 122 181 q 87 160 103 181 q 71 121 71 139 z "},"E":{"ha":1124,"x_min":14,"x_max":1110,"o":"m 1110 978 q 1103 938 1110 958 q 1083 899 1096 917 q 1051 869 1069 881 q 1013 857 1033 857 l 393 857 q 348 846 372 857 q 303 816 324 835 q 268 774 282 797 q 254 729 254 751 l 254 385 q 267 331 254 357 q 299 283 279 304 q 345 250 319 263 q 399 238 371 238 l 1024 238 q 1039 230 1026 238 q 1058 218 1051 222 q 1097 174 1085 197 q 1110 118 1110 150 q 1103 78 1110 99 q 1083 40 1096 57 q 1053 11 1071 22 q 1013 0 1035 0 l 369 0 q 248 25 303 0 q 149 92 193 50 q 74 187 106 133 q 25 299 43 240 q 18 328 22 308 q 14 356 14 349 l 14 757 q 47 878 14 818 q 130 988 79 939 q 242 1066 181 1036 q 364 1096 304 1096 l 1024 1096 q 1059 1083 1043 1096 q 1086 1053 1075 1071 q 1103 1015 1097 1036 q 1110 978 1110 994 m 1047 982 q 1035 1020 1047 1001 q 1000 1039 1024 1039 l 399 1039 q 273 1013 332 1039 q 169 941 214 986 q 97 836 124 896 q 71 711 71 776 l 71 385 q 93 278 71 335 q 153 174 115 222 q 242 94 192 126 q 347 63 292 63 l 1013 63 q 1029 69 1022 63 q 1040 85 1036 75 q 1046 105 1044 94 q 1047 122 1047 115 q 1035 160 1047 140 q 1000 181 1024 181 l 369 181 q 299 203 332 181 q 243 258 267 225 q 206 329 219 290 q 192 401 192 368 l 192 706 q 210 788 192 749 q 258 856 228 826 q 327 903 288 886 q 410 921 367 921 l 1013 921 q 1029 928 1022 921 q 1040 945 1036 935 q 1046 965 1044 956 q 1047 982 1047 975 m 300 544 q 306 583 300 561 q 322 622 311 604 q 348 653 332 640 q 386 665 364 665 l 1024 665 q 1059 653 1043 665 q 1086 623 1075 640 q 1103 585 1097 606 q 1110 547 1110 564 q 1103 507 1110 528 q 1083 469 1096 486 q 1053 442 1071 453 q 1013 431 1035 431 l 399 431 q 358 441 376 431 q 327 468 340 451 q 307 505 314 485 q 300 544 300 525 m 357 551 q 359 535 357 544 q 365 516 361 525 q 376 500 369 507 q 393 493 383 493 l 1013 493 q 1029 499 1022 493 q 1040 515 1036 506 q 1046 535 1044 525 q 1047 553 1047 546 q 1035 590 1047 572 q 1000 608 1024 608 l 410 608 q 373 590 389 608 q 357 551 357 571 z "},"F":{"ha":1124,"x_min":14,"x_max":1110,"o":"m 1110 983 q 1103 943 1110 964 q 1083 904 1096 922 q 1051 874 1069 886 q 1013 863 1033 863 l 251 863 l 251 103 q 240 63 251 81 q 210 32 228 44 q 172 13 193 19 q 132 6 150 6 q 94 12 115 6 q 56 29 74 18 q 26 56 39 40 q 14 92 14 72 l 14 1015 q 22 1043 14 1028 q 44 1072 31 1058 q 72 1093 57 1085 q 100 1101 88 1101 l 1024 1101 q 1059 1089 1043 1101 q 1086 1059 1075 1076 q 1103 1021 1097 1042 q 1110 983 1110 1000 m 1047 988 q 1035 1026 1047 1007 q 1000 1044 1024 1044 l 122 1044 q 89 1029 107 1044 q 71 999 71 1014 l 71 114 q 90 79 71 90 q 128 68 108 68 q 144 69 133 68 q 165 75 154 71 q 182 86 175 79 q 189 103 189 93 l 189 926 l 1013 926 q 1029 933 1022 926 q 1040 951 1036 940 q 1046 971 1044 961 q 1047 988 1047 981 m 300 550 q 306 588 300 567 q 322 628 311 610 q 348 658 332 646 q 386 671 364 671 l 1024 671 q 1059 658 1043 671 q 1086 628 1075 646 q 1103 590 1097 611 q 1110 553 1110 569 q 1103 513 1110 533 q 1083 475 1096 492 q 1053 447 1071 458 q 1013 436 1035 436 l 399 436 q 358 447 376 436 q 327 474 340 457 q 307 510 314 490 q 300 550 300 531 m 357 557 q 359 540 357 550 q 365 522 361 531 q 376 506 369 513 q 393 499 383 499 l 1013 499 q 1029 505 1022 499 q 1040 521 1036 511 q 1046 541 1044 531 q 1047 558 1047 551 q 1035 596 1047 578 q 1000 614 1024 614 l 410 614 q 373 595 389 614 q 357 557 357 576 z "},"G":{"ha":1124,"x_min":14,"x_max":1110,"o":"m 1110 983 q 1103 943 1110 964 q 1083 904 1096 922 q 1051 874 1069 886 q 1013 863 1033 863 l 393 863 q 348 851 372 863 q 303 822 324 840 q 268 780 282 803 q 254 735 254 757 l 254 390 q 266 335 254 361 q 298 290 278 310 q 344 258 318 269 q 399 246 371 246 l 782 246 q 847 275 824 246 q 869 342 869 304 q 864 372 869 356 q 849 402 858 389 q 825 424 839 415 q 794 433 811 433 l 399 433 q 360 445 378 433 q 328 474 342 457 q 308 512 315 492 q 300 550 300 532 q 306 588 300 567 q 322 628 311 610 q 348 658 332 646 q 386 671 364 671 l 822 671 q 840 668 828 671 q 865 662 851 665 q 890 655 878 658 q 908 649 901 651 q 1060 525 1010 610 q 1110 335 1110 440 q 1056 148 1110 231 q 903 29 1003 65 q 858 14 883 22 q 811 6 833 6 l 364 6 q 244 31 299 6 q 147 99 190 57 q 74 194 104 140 q 25 304 43 247 q 18 334 22 314 q 14 361 14 354 l 14 768 q 47 887 14 828 q 131 994 81 946 q 244 1072 182 1042 q 364 1101 306 1101 l 1024 1101 q 1059 1089 1043 1101 q 1086 1059 1075 1076 q 1103 1021 1097 1042 q 1110 983 1110 1000 m 1047 988 q 1035 1026 1047 1007 q 1000 1044 1024 1044 l 399 1044 q 278 1019 338 1044 q 174 952 219 994 q 99 853 128 910 q 71 735 71 797 l 71 390 q 93 284 71 340 q 153 180 115 228 q 242 100 192 132 q 347 68 292 68 l 822 68 q 894 87 856 68 q 967 135 933 106 q 1024 202 1001 165 q 1046 275 1046 239 l 1046 401 q 1021 482 1046 443 q 958 550 996 521 q 876 597 921 579 q 794 614 832 614 l 410 614 q 373 595 389 614 q 357 557 357 576 q 359 542 357 551 q 366 522 361 532 q 378 503 371 511 q 393 496 385 496 l 782 496 q 790 494 783 496 q 806 491 797 493 q 822 486 814 489 q 835 482 831 483 q 907 426 888 463 q 926 336 926 389 q 919 285 926 311 q 895 238 911 258 q 857 203 879 217 q 806 189 835 189 l 369 189 q 299 209 332 189 q 242 260 267 229 q 205 329 218 292 q 192 401 192 367 l 192 711 q 236 840 192 788 q 353 913 281 892 q 368 917 358 914 q 387 922 378 919 q 410 926 396 924 l 1013 926 q 1029 933 1022 926 q 1040 951 1036 940 q 1046 971 1044 961 q 1047 988 1047 981 z "},"H":{"ha":1124,"x_min":14,"x_max":1110,"o":"m 135 1101 q 173 1094 153 1101 q 210 1074 193 1088 q 238 1043 226 1061 q 249 1004 249 1025 l 249 103 q 238 63 249 81 q 210 32 226 44 q 172 13 193 19 q 132 6 151 6 q 94 12 115 6 q 56 29 74 18 q 26 56 39 40 q 14 92 14 72 l 14 1015 q 26 1053 14 1038 q 57 1080 39 1069 q 97 1096 75 1090 q 135 1101 118 1101 m 399 433 q 360 445 378 433 q 328 474 342 457 q 308 512 315 492 q 300 550 300 532 q 306 588 300 567 q 322 628 311 610 q 349 660 333 647 q 386 674 365 674 l 871 674 l 871 1015 q 884 1052 871 1036 q 917 1079 897 1068 q 957 1096 936 1090 q 994 1101 978 1101 q 1034 1094 1014 1101 q 1071 1074 1054 1088 q 1099 1043 1088 1061 q 1110 1004 1110 1025 l 1110 103 q 1099 63 1110 81 q 1070 32 1088 44 q 1032 13 1053 19 q 992 6 1011 6 q 936 18 960 6 q 892 57 913 31 q 879 76 888 64 q 871 92 871 89 l 871 433 l 399 433 m 132 1044 q 92 1031 114 1044 q 71 999 71 1018 l 71 114 q 90 79 71 90 q 128 68 108 68 q 144 69 135 68 q 164 74 154 71 q 180 85 174 78 q 186 103 186 92 l 186 1010 q 180 1024 186 1018 q 165 1035 174 1031 q 147 1042 156 1040 q 132 1044 138 1044 m 929 114 q 949 79 929 90 q 988 68 969 68 q 1005 69 994 68 q 1024 74 1015 71 q 1040 85 1033 78 q 1046 103 1046 92 l 1046 1010 q 1040 1024 1046 1018 q 1024 1035 1033 1031 q 1006 1042 1015 1040 q 992 1044 997 1044 q 973 1041 983 1044 q 953 1031 963 1038 q 936 1017 943 1025 q 929 999 929 1008 l 929 617 l 410 617 q 373 596 389 617 q 357 557 357 575 q 359 542 357 551 q 366 522 361 532 q 378 503 371 511 q 393 496 385 496 l 929 496 l 929 114 z "},"I":{"ha":1124,"x_min":13,"x_max":1110,"o":"m 13 121 q 18 158 13 138 q 35 198 24 179 q 63 230 47 217 q 100 243 79 243 l 442 243 l 442 728 q 455 765 442 749 q 487 792 468 781 q 527 810 506 804 q 565 815 549 815 q 603 808 583 815 q 641 787 624 800 q 670 756 658 774 q 682 717 682 738 l 682 243 l 1024 243 q 1039 235 1026 243 q 1058 224 1051 228 q 1097 179 1085 203 q 1110 124 1110 156 q 1103 83 1110 104 q 1083 45 1096 63 q 1053 17 1071 28 q 1013 6 1035 6 l 111 6 q 72 17 90 6 q 41 44 54 28 q 20 81 28 61 q 13 121 13 101 m 71 126 q 73 111 71 121 q 79 92 75 101 q 90 75 83 82 q 106 68 97 68 l 1013 68 q 1029 74 1022 68 q 1040 90 1036 81 q 1046 110 1044 100 q 1047 128 1047 121 q 1035 166 1047 146 q 1000 186 1024 186 l 619 186 l 619 722 q 613 737 619 731 q 596 747 606 743 q 576 754 586 751 q 561 757 567 757 q 542 753 553 757 q 522 744 532 750 q 506 729 513 738 q 499 711 499 721 l 499 186 l 122 186 q 87 165 103 186 q 71 126 71 144 m 13 981 q 18 1019 13 997 q 34 1058 24 1040 q 61 1089 44 1076 q 100 1101 78 1101 l 1024 1101 q 1059 1089 1043 1101 q 1086 1059 1075 1076 q 1103 1021 1097 1042 q 1110 983 1110 1000 q 1103 943 1110 964 q 1083 906 1096 922 q 1053 878 1071 889 q 1013 867 1035 867 l 111 867 q 72 877 90 867 q 41 904 54 888 q 20 941 28 921 q 13 981 13 961 m 71 988 q 73 971 71 981 q 79 952 75 961 q 90 936 83 943 q 106 929 97 929 l 1013 929 q 1029 935 1022 929 q 1040 951 1036 942 q 1046 971 1044 961 q 1047 988 1047 981 q 1035 1026 1047 1007 q 1000 1044 1024 1044 l 122 1044 q 86 1026 101 1044 q 71 988 71 1007 z "},"J":{"ha":1124,"x_min":13,"x_max":1110,"o":"m 13 390 q 13 415 13 396 q 14 442 14 435 q 58 507 25 486 q 135 528 90 528 q 189 515 167 528 q 232 476 211 501 q 243 455 239 468 q 249 431 247 442 q 251 416 249 428 q 255 390 253 404 q 259 365 257 376 q 261 350 261 353 q 280 308 265 328 q 315 275 294 289 q 360 253 336 261 q 404 246 383 246 l 731 246 q 783 259 758 246 q 827 294 808 272 q 857 342 846 315 q 868 396 868 369 l 868 863 l 111 863 q 72 874 90 863 q 41 903 54 886 q 20 942 28 921 q 13 981 13 963 q 18 1019 13 997 q 34 1058 24 1040 q 61 1089 44 1076 q 100 1101 78 1101 l 1024 1101 q 1053 1092 1038 1101 q 1081 1067 1068 1082 q 1101 1035 1093 1053 q 1110 1004 1110 1018 l 1110 372 q 1081 241 1110 307 q 1003 123 1051 175 q 891 38 954 71 q 760 6 828 6 l 381 6 q 320 15 351 6 q 261 35 289 24 q 158 91 204 56 q 81 173 113 126 q 31 274 49 219 q 13 390 13 329 m 71 401 q 122 219 71 299 q 267 97 174 140 q 315 78 286 88 q 364 68 343 68 l 771 68 q 792 73 772 68 q 822 81 811 78 q 831 83 825 81 q 840 86 838 85 q 996 216 938 131 q 1053 413 1054 301 l 1046 1010 q 1028 1033 1046 1022 q 1000 1044 1011 1044 l 122 1044 q 86 1026 101 1044 q 71 988 71 1007 q 73 972 71 982 q 80 951 75 961 q 91 934 85 942 q 106 926 97 926 l 926 926 l 926 372 q 911 310 926 342 q 872 251 896 278 q 817 206 847 224 q 754 189 786 189 l 381 189 q 356 194 369 189 q 327 205 342 199 q 299 218 313 211 q 278 229 286 225 q 222 294 236 254 q 199 374 207 335 q 178 442 190 414 q 132 471 167 471 q 85 450 100 471 q 71 401 71 429 z "},"K":{"ha":1124,"x_min":14,"x_max":1110,"o":"m 135 1096 q 173 1089 153 1096 q 210 1069 193 1082 q 238 1038 226 1056 q 249 999 249 1019 l 249 97 q 238 57 249 75 q 210 26 226 39 q 172 7 193 14 q 132 0 151 0 q 94 6 115 0 q 56 24 74 13 q 26 51 39 35 q 14 86 14 67 l 14 1010 q 26 1048 14 1032 q 57 1074 39 1064 q 97 1090 75 1085 q 135 1096 118 1096 m 875 86 q 874 125 875 97 q 872 183 872 153 q 869 242 871 214 q 868 281 868 269 q 840 363 865 332 q 771 413 815 393 q 749 422 764 415 q 731 428 733 428 l 399 428 q 360 440 378 428 q 328 469 342 451 q 308 506 315 486 q 300 544 300 526 q 306 583 300 561 q 322 622 311 604 q 348 653 332 640 q 386 665 364 665 l 754 665 q 820 653 782 665 q 881 631 858 640 q 967 580 926 613 q 1040 506 1008 547 q 1091 415 1072 464 q 1110 315 1110 367 l 1110 97 q 1099 57 1110 75 q 1070 26 1088 39 q 1032 7 1053 14 q 992 0 1011 0 q 919 23 951 0 q 875 86 886 46 m 132 1039 q 92 1026 114 1039 q 71 993 71 1013 l 71 108 q 90 74 71 85 q 128 63 108 63 q 144 64 135 63 q 164 69 154 65 q 180 79 174 72 q 186 97 186 86 l 186 1004 q 180 1019 186 1013 q 165 1030 174 1025 q 147 1037 156 1035 q 132 1039 138 1039 m 357 551 q 359 536 357 546 q 366 516 361 526 q 378 498 371 506 q 393 490 385 490 l 714 490 q 783 475 746 490 q 853 435 821 460 q 908 377 886 410 q 929 310 929 344 l 929 108 q 949 74 929 85 q 988 63 969 63 q 1005 64 994 63 q 1024 69 1015 65 q 1040 79 1033 72 q 1046 97 1046 86 l 1046 333 q 1015 439 1046 389 q 935 526 983 489 q 831 586 888 564 q 725 608 775 608 l 410 608 q 373 590 389 608 q 357 551 357 571 m 708 1096 q 747 1089 726 1096 q 783 1069 767 1082 q 811 1038 800 1056 q 822 999 822 1019 l 822 814 q 811 774 822 792 q 783 743 800 756 q 746 724 767 731 q 706 717 725 717 q 668 723 689 717 q 630 741 647 729 q 600 768 613 753 q 588 803 588 783 l 588 1010 q 600 1048 588 1032 q 631 1074 613 1064 q 670 1090 649 1085 q 708 1096 692 1096 m 706 1039 q 666 1026 688 1039 q 644 993 644 1013 l 644 826 q 663 791 644 803 q 701 779 682 779 q 718 781 708 779 q 738 786 728 782 q 753 797 747 790 q 760 814 760 803 l 760 1004 q 753 1019 760 1013 q 738 1030 747 1025 q 720 1037 729 1035 q 706 1039 711 1039 z "},"L":{"ha":1124,"x_min":14,"x_max":1110,"o":"m 135 1096 q 173 1088 153 1096 q 210 1068 193 1081 q 240 1038 228 1056 q 251 999 251 1019 l 251 238 l 1024 238 q 1039 230 1026 238 q 1058 218 1051 222 q 1097 174 1085 197 q 1110 118 1110 150 q 1103 78 1110 99 q 1083 40 1096 57 q 1053 11 1071 22 q 1013 0 1035 0 l 111 0 q 80 8 97 0 q 48 28 63 15 q 24 56 33 40 q 14 86 14 71 l 14 1010 q 26 1048 14 1032 q 57 1074 39 1064 q 97 1090 75 1085 q 135 1096 118 1096 m 132 1039 q 92 1026 114 1039 q 71 993 71 1013 l 71 108 q 82 81 71 99 q 106 63 93 63 l 1013 63 q 1029 69 1022 63 q 1040 85 1036 75 q 1046 105 1044 94 q 1047 122 1047 115 q 1035 160 1047 140 q 1000 181 1024 181 l 189 181 l 189 1004 q 182 1019 189 1013 q 165 1029 175 1025 q 147 1036 156 1033 q 132 1039 138 1039 z "},"M":{"ha":1124,"x_min":14,"x_max":1110,"o":"m 992 0 q 936 13 960 0 q 892 51 913 25 q 879 71 888 58 q 871 86 871 83 l 871 711 q 859 763 871 738 q 828 809 847 789 q 783 842 808 829 q 731 854 757 854 l 386 854 q 338 842 363 854 q 294 809 314 829 q 263 765 275 789 q 251 717 251 740 l 251 97 q 240 57 251 75 q 210 26 228 39 q 172 7 193 14 q 132 0 150 0 q 94 6 115 0 q 56 24 74 13 q 26 51 39 35 q 14 86 14 67 l 14 740 q 43 861 14 799 q 120 976 72 924 q 227 1062 168 1028 q 347 1096 286 1096 l 754 1096 q 881 1065 818 1096 q 995 985 944 1035 q 1078 872 1046 935 q 1110 746 1110 810 l 1110 97 q 1099 57 1110 75 q 1070 26 1088 39 q 1032 7 1053 14 q 992 0 1011 0 m 565 810 q 603 802 583 810 q 640 781 624 794 q 668 750 657 768 q 679 711 679 732 l 679 97 q 668 57 679 75 q 640 26 657 39 q 601 7 622 14 q 561 0 581 0 q 524 6 544 0 q 487 24 504 13 q 457 51 469 35 q 444 86 444 67 l 444 722 q 457 761 444 744 q 488 788 469 778 q 527 804 506 799 q 565 810 549 810 m 988 63 q 1005 64 994 63 q 1024 69 1015 65 q 1040 79 1033 72 q 1046 97 1046 86 l 1046 763 q 1015 868 1046 818 q 936 956 983 918 q 832 1017 889 994 q 725 1039 775 1039 l 381 1039 q 262 1010 318 1039 q 163 936 206 982 q 96 831 121 890 q 71 711 71 772 l 71 108 q 90 74 71 85 q 128 63 108 63 q 144 64 133 63 q 165 69 154 65 q 182 81 175 74 q 189 97 189 88 q 190 707 189 700 q 194 723 192 714 q 199 742 196 732 q 203 757 201 751 q 276 873 222 828 q 404 918 329 918 l 714 918 q 785 904 747 918 q 854 866 822 890 q 908 809 886 842 q 929 740 929 776 l 929 108 q 949 74 929 85 q 988 63 969 63 m 561 751 q 523 739 544 751 q 501 706 501 726 l 501 108 q 519 74 501 85 q 557 63 538 63 q 574 64 564 63 q 594 69 585 65 q 610 79 603 72 q 617 97 617 86 l 617 717 q 610 731 617 725 q 595 742 604 738 q 576 749 586 747 q 561 751 567 751 z "},"N":{"ha":1124,"x_min":14,"x_max":1110,"o":"m 992 0 q 936 13 960 0 q 892 51 913 25 q 879 71 888 58 q 871 86 871 83 l 871 717 q 858 767 871 742 q 826 811 846 792 q 781 842 807 831 q 731 854 756 854 l 386 854 q 339 842 363 854 q 296 809 315 829 q 264 765 276 789 q 251 717 251 740 l 251 97 q 240 57 251 75 q 210 26 228 39 q 172 7 193 14 q 132 0 150 0 q 94 6 115 0 q 56 24 74 13 q 26 51 39 35 q 14 86 14 67 l 14 740 q 43 861 14 799 q 120 976 72 924 q 227 1062 168 1028 q 347 1096 286 1096 l 754 1096 q 882 1065 818 1096 q 997 985 946 1035 q 1078 872 1047 935 q 1110 746 1110 810 l 1110 97 q 1099 57 1110 75 q 1070 26 1088 39 q 1032 7 1053 14 q 992 0 1011 0 m 988 63 q 1005 64 994 63 q 1024 69 1015 65 q 1040 79 1033 72 q 1046 97 1046 86 l 1046 763 q 1015 868 1046 818 q 936 956 983 918 q 832 1017 889 994 q 725 1039 775 1039 l 381 1039 q 259 1010 315 1039 q 161 934 203 981 q 95 828 119 888 q 71 706 71 768 l 71 108 q 90 74 71 85 q 128 63 108 63 q 144 64 133 63 q 165 69 154 65 q 182 81 175 74 q 189 97 189 88 l 189 700 q 206 783 189 743 q 253 852 224 822 q 322 900 283 882 q 404 918 361 918 l 714 918 q 785 904 747 918 q 854 866 822 890 q 908 809 886 842 q 929 740 929 776 l 929 108 q 949 74 929 85 q 988 63 969 63 z "},"O":{"ha":1124,"x_min":14,"x_max":1110,"o":"m 324 6 q 231 35 275 14 q 151 89 188 57 q 87 161 114 121 q 43 247 60 201 q 24 300 35 269 q 14 356 14 331 l 14 757 q 47 878 14 818 q 130 988 79 939 q 242 1066 181 1036 q 364 1096 304 1096 l 771 1096 q 897 1062 836 1096 q 1006 974 958 1028 q 1081 856 1053 921 q 1110 729 1110 792 l 1110 344 q 1076 215 1110 278 q 988 105 1042 153 q 867 28 933 57 q 736 0 800 0 l 364 0 q 346 2 361 0 q 324 6 331 4 m 301 75 q 331 67 311 72 q 353 63 350 63 l 754 63 q 851 86 800 63 q 946 149 903 110 q 1017 236 989 188 q 1046 333 1046 285 l 1046 746 q 1042 768 1046 749 q 1035 797 1038 788 q 994 891 1022 847 q 926 968 965 935 q 838 1020 886 1001 q 736 1039 790 1039 l 399 1039 q 274 1013 333 1039 q 170 942 215 986 q 98 840 125 899 q 71 717 71 781 l 71 385 q 88 285 71 335 q 137 192 106 235 q 210 119 168 150 q 301 75 251 88 m 324 194 q 270 228 294 206 q 228 278 246 250 q 201 339 211 307 q 192 401 192 371 l 192 706 q 209 788 192 749 q 257 856 226 826 q 326 901 288 885 q 410 918 365 918 l 719 918 q 792 903 756 918 q 859 863 829 889 q 908 803 889 838 q 926 729 926 768 l 926 356 q 908 292 926 322 q 863 237 890 261 q 801 198 835 213 q 736 183 767 183 l 369 183 q 349 188 367 183 q 324 194 331 192 m 364 247 q 383 242 369 244 q 399 240 396 240 l 719 240 q 774 252 747 240 q 822 284 801 264 q 856 330 843 304 q 868 385 868 356 l 868 706 q 858 756 868 729 q 832 803 849 782 q 792 840 815 825 q 743 854 769 854 l 393 854 q 345 844 369 854 q 301 815 321 833 q 267 775 281 797 q 254 729 254 753 l 254 385 q 287 297 254 336 q 364 247 319 258 z "},"P":{"ha":1124,"x_min":14,"x_max":1110,"o":"m 1110 693 q 1051 473 1110 563 q 875 326 993 383 q 807 303 844 313 q 736 293 769 293 l 399 293 q 358 303 376 293 q 327 331 340 314 q 307 367 314 347 q 300 407 300 388 q 306 445 300 424 q 322 485 311 467 q 349 517 333 504 q 386 531 365 531 q 727 533 719 531 q 745 538 735 535 q 765 544 756 542 q 782 550 775 547 q 849 610 829 567 q 869 697 869 653 q 860 757 869 728 q 831 809 850 786 q 786 846 813 832 q 725 860 760 860 l 251 860 l 251 103 q 240 63 251 81 q 210 32 228 44 q 172 13 193 19 q 132 6 150 6 q 94 12 115 6 q 56 29 74 18 q 26 56 39 40 q 14 92 14 72 l 14 1015 q 22 1043 14 1028 q 44 1072 31 1058 q 72 1093 57 1085 q 100 1101 88 1101 l 754 1101 q 819 1091 785 1101 q 881 1067 853 1081 q 1052 917 994 1014 q 1110 693 1110 819 m 1047 696 q 1035 798 1047 749 q 999 889 1024 847 q 937 963 975 931 q 846 1015 899 996 q 787 1035 818 1025 q 725 1044 756 1044 l 122 1044 q 89 1029 107 1044 q 71 999 71 1014 l 71 114 q 90 79 71 90 q 128 68 108 68 q 144 69 133 68 q 165 75 154 71 q 182 86 175 79 q 189 103 189 93 l 189 924 l 714 924 q 801 906 763 924 q 868 857 840 888 q 911 786 896 826 q 926 700 926 746 q 899 575 926 629 q 800 493 871 521 q 783 488 793 490 q 763 481 774 485 q 745 476 753 478 q 736 474 738 474 l 410 474 q 373 453 389 474 q 357 414 357 432 q 359 397 357 407 q 365 378 361 388 q 376 363 369 369 q 393 356 383 356 l 754 356 q 776 359 761 356 q 806 367 790 363 q 836 377 822 372 q 857 385 850 382 q 1001 509 956 425 q 1047 696 1047 593 z "},"Q":{"ha":1124,"x_min":14,"x_max":1110,"o":"m 992 435 q 919 458 951 435 q 875 522 886 482 q 874 561 875 533 q 872 619 872 589 q 869 678 871 650 q 868 717 868 706 q 856 770 867 744 q 825 816 844 796 q 780 848 806 836 q 725 860 754 860 l 386 860 q 338 848 361 860 q 295 816 314 836 q 265 772 276 796 q 254 722 254 747 l 254 378 q 269 327 254 351 q 305 284 283 303 q 353 254 326 265 q 404 243 379 243 l 593 243 q 608 235 596 243 q 628 224 621 228 q 667 179 654 203 q 679 124 679 156 q 672 83 679 104 q 653 45 665 63 q 622 17 640 28 q 582 6 604 6 l 381 6 q 270 26 322 6 q 174 79 218 46 q 94 158 129 113 q 38 253 60 203 q 31 271 35 258 q 23 297 26 283 q 17 322 19 310 q 14 339 14 333 l 14 746 q 43 867 14 804 q 119 981 72 929 q 226 1067 167 1033 q 347 1101 286 1101 l 754 1101 q 882 1071 818 1101 q 997 990 946 1040 q 1078 878 1047 940 q 1110 751 1110 815 l 1110 533 q 1099 493 1110 511 q 1070 462 1088 475 q 1032 442 1053 449 q 992 435 1011 435 m 588 407 q 619 496 588 464 q 708 528 651 528 q 741 526 726 528 q 771 510 756 525 l 1092 189 q 1107 158 1104 178 q 1110 124 1110 139 q 1076 39 1110 72 q 992 6 1043 6 q 957 8 976 6 q 926 22 938 11 l 604 344 q 588 374 589 360 q 588 407 588 388 m 988 499 q 1005 500 994 499 q 1024 505 1015 501 q 1040 515 1033 508 q 1046 533 1046 522 l 1046 768 q 1015 874 1046 824 q 936 962 983 924 q 832 1022 889 1000 q 725 1044 775 1044 l 381 1044 q 262 1016 318 1044 q 163 942 206 988 q 96 837 121 896 q 71 717 71 778 l 71 372 q 96 264 71 318 q 162 166 121 210 q 256 95 203 122 q 364 68 308 68 l 582 68 q 600 74 593 68 q 610 90 607 81 q 615 110 614 100 q 617 128 617 121 q 606 166 617 146 q 571 186 594 186 l 381 186 q 360 192 378 186 q 335 200 343 197 q 232 275 272 226 q 192 396 192 324 l 192 706 q 208 788 192 749 q 254 858 225 828 q 322 906 283 889 q 404 924 360 924 l 714 924 q 785 910 747 924 q 854 872 822 896 q 908 815 886 847 q 929 746 929 782 l 929 544 q 949 510 929 521 q 988 499 969 499 m 644 414 q 647 392 644 404 q 657 372 650 379 l 949 81 q 966 69 960 69 q 988 68 972 68 q 1047 128 1047 68 q 1047 149 1047 143 q 1035 167 1046 156 l 743 458 q 725 468 736 465 q 706 471 714 471 q 663 454 682 471 q 644 414 644 438 z "},"R":{"ha":1124,"x_min":14,"x_max":1110,"o":"m 1110 765 q 1045 565 1110 647 q 868 447 981 482 q 839 440 860 444 q 811 436 818 436 l 399 436 q 358 447 376 436 q 327 474 340 457 q 307 510 314 490 q 300 550 300 531 q 306 588 300 567 q 322 628 311 610 q 349 660 333 647 q 386 674 365 674 l 782 674 q 847 705 824 674 q 869 772 869 736 q 850 832 869 804 q 794 860 831 860 l 251 860 l 251 103 q 240 63 251 81 q 210 32 228 44 q 172 13 193 19 q 132 6 150 6 q 94 12 115 6 q 56 29 74 18 q 26 56 39 40 q 14 92 14 72 l 14 1015 q 22 1043 14 1028 q 44 1072 31 1058 q 72 1093 57 1085 q 100 1101 88 1101 l 822 1101 q 840 1099 828 1101 q 865 1092 851 1096 q 890 1085 878 1089 q 908 1078 901 1081 q 1060 955 1010 1039 q 1110 765 1110 871 m 708 385 q 747 378 726 385 q 783 358 767 371 q 811 326 800 344 q 822 286 822 308 l 822 103 q 811 63 822 81 q 783 32 800 44 q 746 13 767 19 q 706 6 725 6 q 668 12 689 6 q 630 29 647 18 q 600 56 613 40 q 588 92 588 72 l 588 299 q 600 337 588 321 q 631 363 613 353 q 670 379 649 374 q 708 385 692 385 m 357 557 q 359 540 357 550 q 365 522 361 531 q 376 506 369 513 q 393 499 383 499 l 822 499 q 894 517 856 499 q 967 566 933 536 q 1024 633 1001 596 q 1046 706 1046 669 l 1046 832 q 1021 913 1046 875 q 958 981 996 951 q 876 1027 921 1010 q 794 1044 832 1044 l 122 1044 q 89 1029 107 1044 q 71 999 71 1014 l 71 114 q 90 79 71 90 q 128 68 108 68 q 144 69 133 68 q 165 75 154 71 q 182 86 175 79 q 189 103 189 93 l 189 924 l 782 924 q 845 911 818 924 q 890 876 872 899 q 917 826 908 854 q 926 765 926 797 q 912 690 926 725 q 857 636 897 656 q 828 624 847 632 q 806 617 808 617 l 410 617 q 373 596 389 617 q 357 557 357 575 m 706 328 q 666 315 688 328 q 644 281 644 301 l 644 114 q 663 79 644 90 q 701 68 682 68 q 718 69 708 68 q 738 74 728 71 q 753 85 747 78 q 760 103 760 92 l 760 293 q 753 308 760 301 q 738 318 747 314 q 720 325 729 322 q 706 328 711 328 z "},"S":{"ha":1124,"x_min":13,"x_max":1110,"o":"m 13 121 q 18 158 13 138 q 35 198 24 179 q 63 230 47 217 q 100 243 79 243 q 727 246 719 243 q 745 251 735 249 q 765 258 756 254 q 782 264 775 261 q 824 289 801 271 q 851 326 847 307 l 840 332 l 89 585 q 42 617 63 594 q 14 665 21 639 l 14 714 q 78 931 14 839 q 254 1072 142 1022 q 271 1078 257 1074 q 289 1083 285 1082 q 308 1088 296 1085 q 333 1094 321 1092 q 353 1099 344 1097 q 364 1101 363 1101 l 1024 1101 q 1059 1089 1043 1101 q 1086 1059 1075 1076 q 1103 1021 1097 1042 q 1110 983 1110 1000 q 1103 943 1110 964 q 1083 904 1096 922 q 1051 874 1069 886 q 1013 863 1033 863 l 393 863 q 383 860 390 863 q 367 855 376 858 q 349 848 358 851 q 335 843 340 844 q 317 833 328 840 q 297 818 307 826 q 280 801 288 810 q 272 782 272 792 l 272 781 l 1024 528 q 1092 475 1074 511 q 1110 390 1110 439 q 1081 246 1110 315 q 1001 123 1051 176 q 882 38 950 69 q 736 6 814 6 l 111 6 q 72 17 90 6 q 41 44 54 28 q 20 81 28 61 q 13 121 13 101 m 71 126 q 73 111 71 121 q 79 92 75 101 q 90 75 83 82 q 106 68 97 68 l 754 68 q 805 78 774 68 q 857 97 836 88 q 997 213 946 138 q 1047 388 1047 288 q 1047 411 1047 393 q 1046 436 1047 431 q 1035 453 1040 446 q 1018 464 1029 461 l 197 740 l 197 747 q 218 816 197 783 q 270 873 239 849 q 339 912 301 897 q 410 926 376 926 l 1013 926 q 1029 933 1022 926 q 1040 951 1036 940 q 1046 971 1044 961 q 1047 988 1047 981 q 1035 1026 1047 1007 q 1000 1044 1024 1044 l 399 1044 q 269 1017 329 1044 q 165 942 208 989 q 96 833 121 894 q 71 704 71 771 q 78 667 71 686 q 106 642 86 649 l 926 367 l 926 365 q 908 301 926 333 q 861 244 889 269 q 799 202 833 218 q 736 186 765 186 l 122 186 q 87 165 103 186 q 71 126 71 144 z "},"T":{"ha":1124,"x_min":13,"x_max":1110,"o":"m 565 815 q 603 808 583 815 q 640 787 624 800 q 668 756 657 774 q 679 717 679 738 l 679 103 q 668 63 679 81 q 640 32 657 44 q 601 13 622 19 q 561 6 581 6 q 524 12 544 6 q 487 29 504 18 q 457 56 469 40 q 444 92 444 72 l 444 728 q 457 767 444 750 q 488 794 469 783 q 527 810 506 804 q 565 815 549 815 m 561 757 q 523 744 544 757 q 501 711 501 732 l 501 114 q 519 79 501 90 q 557 68 538 68 q 574 69 564 68 q 594 74 585 71 q 610 85 603 78 q 617 103 617 92 l 617 722 q 610 737 617 731 q 595 748 604 743 q 576 755 586 753 q 561 757 567 757 m 13 981 q 18 1019 13 997 q 34 1058 24 1040 q 61 1089 44 1076 q 100 1101 78 1101 l 1024 1101 q 1059 1089 1043 1101 q 1086 1059 1075 1076 q 1103 1021 1097 1042 q 1110 983 1110 1000 q 1103 943 1110 964 q 1083 906 1096 922 q 1053 878 1071 889 q 1013 867 1035 867 l 111 867 q 72 877 90 867 q 41 904 54 888 q 20 941 28 921 q 13 981 13 961 m 71 988 q 73 971 71 981 q 79 952 75 961 q 90 936 83 943 q 106 929 97 929 l 1013 929 q 1029 935 1022 929 q 1040 951 1036 942 q 1046 971 1044 961 q 1047 988 1047 981 q 1035 1026 1047 1007 q 1000 1044 1024 1044 l 122 1044 q 86 1026 101 1044 q 71 988 71 1007 z "},"U":{"ha":1124,"x_min":14,"x_max":1110,"o":"m 135 1101 q 173 1094 153 1101 q 210 1074 193 1086 q 240 1043 228 1061 q 251 1004 251 1025 l 251 385 q 265 333 251 358 q 299 289 278 308 q 347 258 321 269 q 399 246 374 246 l 719 246 q 773 258 746 246 q 822 290 800 269 q 858 336 844 310 q 871 390 871 363 l 871 1015 q 884 1052 871 1036 q 917 1079 897 1068 q 957 1096 936 1090 q 994 1101 978 1101 q 1034 1094 1014 1101 q 1071 1074 1054 1088 q 1099 1043 1088 1061 q 1110 1004 1110 1025 l 1110 356 q 1076 223 1110 286 q 990 111 1043 160 q 869 34 936 63 q 736 6 803 6 l 364 6 q 238 37 300 6 q 125 119 175 68 q 44 233 75 169 q 14 361 14 297 l 14 1015 q 26 1053 14 1038 q 57 1080 39 1069 q 97 1096 75 1090 q 135 1101 118 1101 m 132 1044 q 92 1031 114 1044 q 71 999 71 1018 l 71 390 q 93 283 71 339 q 153 178 115 226 q 242 99 192 131 q 347 68 292 68 l 754 68 q 853 92 801 68 q 948 156 906 117 q 1018 244 990 194 q 1046 344 1046 294 l 1046 1010 q 1040 1024 1046 1018 q 1024 1035 1033 1031 q 1006 1042 1015 1040 q 992 1044 997 1044 q 973 1041 983 1044 q 953 1031 963 1038 q 936 1017 943 1025 q 929 999 929 1008 l 929 361 q 910 300 929 331 q 861 244 890 269 q 799 204 832 219 q 736 189 765 189 l 369 189 q 299 210 332 189 q 242 262 267 231 q 203 331 218 293 q 189 401 189 368 l 189 1010 q 182 1024 189 1018 q 165 1035 175 1031 q 147 1042 156 1039 q 132 1044 138 1044 z "},"V":{"ha":1124,"x_min":14,"x_max":1110,"o":"m 14 982 q 47 1069 14 1038 q 135 1101 79 1101 q 190 1090 163 1101 q 232 1050 218 1078 l 560 399 l 886 1044 q 932 1089 903 1076 q 994 1101 961 1101 q 1077 1067 1044 1101 q 1110 983 1110 1032 q 1110 961 1110 972 q 1104 940 1110 951 l 663 57 q 619 17 647 29 q 561 6 590 6 q 496 24 525 6 q 450 75 467 42 l 25 924 q 17 940 19 933 q 15 951 15 946 q 14 964 14 957 q 14 982 14 971 m 71 988 q 72 972 71 978 q 76 958 72 967 l 513 86 q 533 71 519 74 q 557 68 546 68 q 588 72 574 68 q 611 92 601 75 l 1046 964 q 1047 972 1047 964 q 1047 985 1047 981 q 1033 1027 1047 1010 q 992 1044 1019 1044 q 965 1038 981 1044 q 943 1021 950 1032 l 561 264 l 186 1010 q 132 1044 168 1044 q 90 1028 108 1044 q 71 988 71 1011 z "},"W":{"ha":1124,"x_min":14,"x_max":1110,"o":"m 135 1101 q 173 1094 153 1101 q 210 1074 193 1086 q 240 1043 228 1061 q 251 1004 251 1025 l 251 390 q 264 335 251 361 q 297 290 276 310 q 344 258 318 269 q 399 246 371 246 l 719 246 q 773 258 746 246 q 822 290 800 269 q 858 336 844 310 q 871 390 871 363 l 871 1015 q 884 1052 871 1036 q 917 1079 897 1068 q 957 1096 936 1090 q 994 1101 978 1101 q 1034 1094 1014 1101 q 1071 1074 1054 1088 q 1099 1043 1088 1061 q 1110 1004 1110 1025 l 1110 356 q 1076 223 1110 286 q 990 111 1043 160 q 871 34 938 63 q 736 6 804 6 l 364 6 q 305 15 338 6 q 249 35 272 24 q 106 142 157 72 q 25 304 54 213 q 18 334 22 314 q 14 361 14 354 l 14 1015 q 26 1053 14 1038 q 57 1080 39 1069 q 97 1096 75 1090 q 135 1101 118 1101 m 132 1044 q 92 1031 114 1044 q 71 999 71 1018 l 71 390 q 93 284 71 340 q 153 180 115 228 q 242 100 192 132 q 347 68 292 68 l 754 68 q 851 92 800 68 q 946 155 903 117 q 1017 242 989 193 q 1046 339 1046 290 l 1046 1010 q 1040 1024 1046 1018 q 1024 1035 1033 1031 q 1006 1042 1015 1040 q 992 1044 997 1044 q 973 1041 983 1044 q 953 1031 963 1038 q 936 1017 943 1025 q 929 999 929 1008 l 929 361 q 910 300 929 331 q 861 244 890 269 q 799 204 832 219 q 736 189 765 189 l 369 189 q 298 210 331 189 q 241 263 265 231 q 203 334 217 296 q 189 407 189 372 l 189 1010 q 182 1024 189 1018 q 165 1035 175 1031 q 147 1042 156 1039 q 132 1044 138 1044 m 565 1101 q 603 1094 583 1101 q 640 1074 624 1088 q 668 1043 657 1061 q 679 1004 679 1025 l 679 390 q 668 350 679 368 q 640 319 657 332 q 601 299 622 306 q 561 292 581 292 q 524 298 544 292 q 487 316 504 304 q 457 343 469 328 q 444 378 444 358 l 444 1015 q 457 1053 444 1038 q 488 1080 469 1069 q 527 1096 506 1090 q 565 1101 549 1101 m 561 1044 q 523 1031 544 1044 q 501 999 501 1018 l 501 401 q 519 366 501 378 q 557 354 538 354 q 574 356 564 354 q 594 361 585 357 q 610 372 603 365 q 617 390 617 379 l 617 1010 q 610 1024 617 1018 q 595 1035 604 1031 q 576 1042 586 1040 q 561 1044 567 1044 z "},"X":{"ha":1124,"x_min":13,"x_max":1110,"o":"m 13 121 q 17 163 13 142 q 38 200 21 185 l 272 436 q 306 454 285 449 q 347 460 328 460 q 432 423 401 460 q 463 335 463 386 q 461 300 463 315 q 444 269 460 285 l 197 22 q 167 8 186 11 q 132 6 147 6 q 48 38 83 6 q 13 121 13 71 m 13 981 q 45 1069 13 1038 q 135 1101 78 1101 q 167 1100 153 1101 q 197 1083 182 1099 l 1092 189 q 1107 158 1104 178 q 1110 124 1110 139 q 1076 39 1110 72 q 992 6 1043 6 q 957 8 976 6 q 926 22 938 11 l 31 918 q 14 947 15 933 q 13 981 13 961 m 71 126 q 85 83 71 99 q 128 68 100 68 q 144 68 135 68 q 163 75 156 68 l 399 310 q 403 325 403 315 q 404 342 404 335 q 388 383 404 369 q 344 396 371 396 q 328 397 338 396 q 313 390 319 397 l 83 161 q 73 145 75 153 q 71 126 71 138 m 71 988 q 74 965 71 978 q 83 946 76 953 l 949 81 q 966 69 960 69 q 988 68 972 68 q 1047 128 1047 68 q 1047 149 1047 143 q 1035 167 1046 156 l 169 1032 q 151 1042 163 1039 q 132 1044 140 1044 q 90 1028 108 1044 q 71 988 71 1011 m 656 772 q 661 810 656 789 q 679 843 667 831 l 914 1078 q 952 1098 931 1094 q 994 1101 974 1101 q 1077 1067 1044 1101 q 1110 983 1110 1032 q 1107 949 1110 968 q 1092 918 1104 929 l 846 671 q 815 654 831 656 q 781 653 800 653 q 692 684 728 653 q 656 772 656 715 m 719 771 q 733 728 719 744 q 774 711 746 711 q 790 711 781 711 q 806 717 800 711 l 1040 951 q 1047 969 1047 958 q 1047 988 1047 981 q 1033 1028 1047 1013 q 992 1044 1018 1044 q 972 1042 983 1044 q 954 1032 961 1039 l 725 803 q 719 787 718 796 q 719 771 719 778 z "},"Y":{"ha":1124,"x_min":14,"x_max":1110,"o":"m 565 385 q 603 378 583 385 q 640 358 624 371 q 668 326 657 344 q 679 286 679 308 l 679 103 q 668 63 679 81 q 640 32 657 44 q 601 13 622 19 q 561 6 581 6 q 524 12 544 6 q 487 29 504 18 q 457 56 469 40 q 444 92 444 72 l 444 299 q 457 337 444 321 q 488 363 469 353 q 527 379 506 374 q 565 385 549 385 m 561 328 q 523 315 544 328 q 501 281 501 301 l 501 114 q 519 79 501 90 q 557 68 538 68 q 574 69 564 68 q 594 74 585 71 q 610 85 603 78 q 617 103 617 92 l 617 293 q 610 308 617 301 q 595 318 604 314 q 576 325 586 322 q 561 328 567 328 m 135 1101 q 173 1094 153 1101 q 210 1074 193 1086 q 240 1043 228 1061 q 251 1004 251 1025 l 251 819 q 264 765 251 792 q 297 719 276 739 q 344 688 318 700 q 399 676 371 676 l 719 676 q 775 688 749 676 q 822 719 801 700 q 854 765 842 739 q 868 819 867 792 q 869 858 868 831 q 872 917 871 886 q 874 976 872 949 q 875 1015 875 1004 q 919 1081 886 1060 q 994 1101 951 1101 q 1034 1094 1014 1101 q 1071 1074 1054 1088 q 1099 1043 1088 1061 q 1110 1004 1110 1025 l 1110 781 q 1076 651 1110 714 q 988 541 1042 589 q 867 465 933 493 q 736 436 800 436 l 364 436 q 305 445 338 436 q 249 464 272 454 q 106 573 158 501 q 25 735 53 644 q 18 764 22 743 q 14 792 14 785 l 14 1015 q 26 1053 14 1038 q 57 1080 39 1069 q 97 1096 75 1090 q 135 1101 118 1101 m 71 910 q 78 798 71 856 q 106 688 86 740 q 162 594 126 636 q 254 528 197 551 q 299 508 275 518 q 347 499 324 499 l 754 499 q 806 508 779 499 q 857 528 833 517 q 1001 652 950 571 q 1053 838 1053 733 l 1053 843 q 1051 876 1053 853 q 1049 926 1050 900 q 1047 976 1049 953 q 1046 1010 1046 1000 q 1024 1035 1036 1025 q 992 1044 1011 1044 q 973 1041 983 1044 q 953 1031 963 1038 q 936 1017 943 1025 q 929 999 929 1008 l 929 792 q 910 731 929 761 q 861 675 890 700 q 799 635 832 650 q 736 619 765 619 l 369 619 q 328 629 353 619 q 289 649 304 639 q 224 720 246 676 q 194 814 203 764 q 186 915 186 864 q 186 1010 186 967 q 164 1035 176 1025 q 132 1044 151 1044 q 93 1031 108 1044 q 71 999 78 1018 l 71 910 l 71 910 z "},"Z":{"ha":1124,"x_min":13,"x_max":1110,"o":"m 13 115 q 17 158 13 136 q 38 194 21 179 l 690 857 l 111 857 q 72 869 90 857 q 41 898 54 881 q 20 936 28 915 q 13 975 13 957 q 18 1013 13 992 q 34 1053 24 1035 q 61 1083 44 1071 q 100 1096 78 1096 l 1024 1096 q 1059 1083 1043 1096 q 1086 1053 1075 1071 q 1103 1015 1097 1036 q 1110 978 1110 994 q 1107 943 1110 963 q 1092 913 1104 924 l 426 238 l 1024 238 q 1039 230 1026 238 q 1058 218 1051 222 q 1097 174 1085 197 q 1110 118 1110 150 q 1103 78 1110 99 q 1083 40 1096 57 q 1053 11 1071 22 q 1013 0 1035 0 l 111 0 q 72 11 90 0 q 41 39 54 22 q 20 76 28 56 q 13 115 13 96 m 71 121 q 73 106 71 115 q 79 86 75 96 q 90 69 83 76 q 106 63 97 63 l 1013 63 q 1029 69 1022 63 q 1040 85 1036 75 q 1046 105 1044 94 q 1047 122 1047 115 q 1035 160 1047 140 q 1000 181 1024 181 l 283 181 l 1040 946 q 1047 964 1047 953 q 1047 982 1047 975 q 1035 1020 1047 1001 q 1000 1039 1024 1039 l 122 1039 q 86 1020 101 1039 q 71 982 71 1001 q 73 966 71 976 q 80 946 75 956 q 91 928 85 936 q 106 921 97 921 l 840 921 l 83 156 q 73 139 75 146 q 71 121 71 132 z "},"a":{"ha":1124,"x_min":13,"x_max":1110,"o":"m 14 261 q 52 408 14 344 q 169 504 90 471 q 182 509 174 506 q 199 515 190 513 q 217 520 208 518 q 232 522 226 522 l 736 522 q 772 510 756 522 q 799 479 788 497 q 817 441 811 461 q 824 404 824 421 q 817 364 824 385 q 797 325 810 343 q 765 295 783 307 q 725 283 747 283 l 267 283 q 255 277 256 283 q 254 265 254 271 q 258 249 254 257 q 272 240 261 240 l 868 240 l 868 493 q 845 545 868 519 q 794 571 822 571 l 111 571 q 72 583 90 571 q 41 612 54 594 q 20 650 28 629 q 13 689 13 671 q 18 726 13 706 q 34 765 24 747 q 61 796 44 783 q 100 808 78 808 l 822 808 q 923 783 872 808 q 1015 718 974 758 q 1083 628 1057 678 q 1110 528 1110 578 l 1110 97 q 1101 63 1110 81 q 1078 32 1092 46 q 1047 9 1064 18 q 1013 0 1029 0 l 243 0 q 149 23 190 0 q 76 83 107 46 q 30 167 46 121 q 14 261 14 214 m 71 260 q 82 193 71 228 q 114 129 93 158 q 165 81 135 100 q 232 63 194 63 l 1013 63 q 1033 75 1021 63 q 1046 97 1046 88 l 1046 539 q 1021 620 1046 582 q 958 688 996 658 q 876 734 921 717 q 794 751 832 751 l 122 751 q 86 733 101 751 q 71 694 71 714 q 73 679 71 689 q 80 659 75 669 q 91 641 85 649 q 106 633 97 633 l 782 633 q 828 624 803 633 q 876 599 854 615 q 912 562 897 583 q 926 517 926 540 l 926 183 l 249 183 q 224 192 235 183 q 206 213 214 200 q 195 239 199 225 q 192 264 192 253 q 215 322 192 296 q 272 347 238 347 l 725 347 q 742 354 735 347 q 753 372 749 361 q 758 392 757 382 q 760 408 760 401 q 749 447 760 428 q 714 465 738 465 l 254 465 q 179 447 213 465 q 122 400 146 429 q 84 334 97 371 q 71 260 71 297 z "},"b":{"ha":1124,"x_min":14,"x_max":1110,"o":"m 135 1096 q 173 1088 153 1096 q 210 1068 193 1081 q 240 1038 228 1056 q 251 999 251 1019 l 251 385 q 264 330 251 356 q 297 284 276 304 q 344 252 318 264 q 399 240 371 240 l 719 240 q 781 254 753 240 q 828 291 808 268 q 859 343 849 314 q 869 404 869 372 q 847 498 869 461 q 771 557 824 535 q 749 565 764 560 q 731 571 733 571 l 399 571 q 360 583 378 571 q 328 612 342 594 q 308 650 315 629 q 300 689 300 671 q 306 726 300 706 q 322 765 311 747 q 348 796 332 783 q 386 808 364 808 l 754 808 q 819 798 785 808 q 881 775 853 788 q 1051 626 993 722 q 1110 404 1110 529 q 1044 169 1110 265 q 846 24 979 72 q 792 7 822 14 q 736 0 761 0 l 364 0 q 305 9 338 0 q 249 29 272 18 q 106 137 157 67 q 25 299 54 207 q 18 328 22 308 q 14 356 14 349 l 14 1010 q 26 1048 14 1032 q 57 1074 39 1064 q 97 1090 75 1085 q 135 1096 118 1096 m 132 1039 q 92 1026 114 1039 q 71 993 71 1013 l 71 385 q 93 278 71 335 q 153 174 115 222 q 242 94 192 126 q 347 63 292 63 l 754 63 q 851 86 800 63 q 946 149 903 110 q 1017 236 989 188 q 1046 333 1046 285 l 1046 476 q 1015 582 1046 532 q 936 669 983 632 q 832 729 889 707 q 725 751 775 751 l 410 751 q 373 733 389 751 q 357 694 357 714 q 359 679 357 689 q 366 659 361 669 q 378 641 371 649 q 393 633 385 633 q 721 632 714 633 q 737 628 728 631 q 756 624 746 626 q 771 619 765 621 q 889 541 851 597 q 926 404 926 485 q 897 281 926 333 q 800 201 868 229 q 769 190 792 197 q 736 183 747 183 l 369 183 q 298 204 331 183 q 241 258 265 225 q 203 328 217 290 q 189 401 189 367 l 189 1004 q 182 1019 189 1013 q 165 1029 175 1025 q 147 1036 156 1033 q 132 1039 138 1039 z "},"c":{"ha":1124,"x_min":14,"x_max":1110,"o":"m 14 397 q 67 624 14 531 q 243 775 119 717 q 272 786 256 781 q 304 797 288 792 q 337 805 321 801 q 364 808 353 808 l 1024 808 q 1059 796 1043 808 q 1086 766 1075 783 q 1103 728 1097 749 q 1110 692 1110 708 q 1103 651 1110 672 q 1083 613 1096 631 q 1051 583 1069 594 q 1013 571 1033 571 l 393 571 q 383 569 390 571 q 367 563 376 567 q 349 556 358 560 q 335 551 340 553 q 272 492 290 529 q 254 407 254 454 q 272 317 254 358 q 340 258 290 276 q 358 252 347 256 q 378 246 368 249 q 404 238 389 243 l 1024 238 q 1039 230 1026 238 q 1058 218 1051 222 q 1097 174 1085 197 q 1110 118 1110 150 q 1103 78 1110 99 q 1083 40 1096 57 q 1053 11 1071 22 q 1013 0 1035 0 l 381 0 q 321 9 356 0 q 261 29 286 18 q 156 88 201 51 q 78 173 110 125 q 31 278 47 221 q 14 397 14 335 m 71 401 q 121 216 71 296 q 267 92 171 136 q 315 72 286 82 q 364 63 343 63 l 1013 63 q 1029 69 1022 63 q 1040 85 1036 75 q 1046 105 1044 94 q 1047 122 1047 115 q 1035 160 1047 140 q 1000 181 1024 181 l 381 181 q 360 186 378 181 q 335 194 343 192 q 192 407 192 256 q 233 542 192 486 q 353 619 275 597 q 368 624 358 621 q 387 628 378 626 q 410 633 396 631 l 1013 633 q 1029 640 1022 633 q 1040 658 1036 647 q 1046 678 1044 668 q 1047 696 1047 689 q 1035 733 1047 715 q 1000 751 1024 751 l 399 751 q 265 723 325 751 q 161 647 204 694 q 94 535 118 599 q 71 401 71 471 z "},"d":{"ha":1124,"x_min":14,"x_max":1110,"o":"m 14 397 q 67 624 14 531 q 243 775 119 717 q 272 786 256 781 q 304 797 288 792 q 337 805 321 801 q 364 808 353 808 l 736 808 q 772 796 756 808 q 799 766 788 783 q 817 728 811 749 q 824 692 824 708 q 817 651 824 672 q 797 613 810 631 q 765 583 783 594 q 725 571 747 571 l 393 571 q 383 569 390 571 q 367 563 376 567 q 349 556 358 560 q 335 551 340 553 q 272 493 290 531 q 254 411 254 456 q 263 347 254 378 q 291 292 272 315 q 338 254 310 268 q 404 240 365 240 l 725 240 q 779 253 753 240 q 826 288 806 267 q 858 335 846 308 q 871 390 871 363 l 871 1010 q 884 1047 871 1031 q 917 1074 897 1063 q 957 1090 936 1085 q 994 1096 978 1096 q 1034 1089 1014 1096 q 1071 1069 1054 1082 q 1099 1038 1088 1056 q 1110 999 1110 1019 l 1110 367 q 1081 235 1110 301 q 1003 117 1051 169 q 891 33 954 65 q 760 0 828 0 l 381 0 q 321 9 356 0 q 261 29 286 18 q 156 88 201 51 q 78 173 110 125 q 31 278 47 221 q 14 397 14 335 m 71 399 q 122 215 71 294 q 267 92 172 136 q 315 72 286 82 q 364 63 343 63 l 771 63 q 868 90 819 63 q 956 159 917 117 q 1021 252 996 201 q 1046 350 1046 303 l 1046 1004 q 1040 1019 1046 1013 q 1024 1030 1033 1025 q 1006 1037 1015 1035 q 992 1039 997 1039 q 973 1035 983 1039 q 953 1026 963 1032 q 936 1011 943 1019 q 929 993 929 1003 l 929 367 q 913 307 929 339 q 872 247 897 275 q 815 201 846 219 q 754 183 783 183 l 381 183 q 360 188 378 183 q 335 194 342 192 q 192 410 192 253 q 235 544 192 489 q 353 619 278 599 q 368 624 358 621 q 387 628 378 626 q 410 633 396 631 l 725 633 q 742 640 735 633 q 753 658 749 647 q 758 678 757 668 q 760 696 760 689 q 749 733 760 715 q 714 751 738 751 l 399 751 q 263 723 324 751 q 160 646 203 694 q 94 533 118 597 q 71 399 71 469 z "},"e":{"ha":1124,"x_min":14,"x_max":1110,"o":"m 14 397 q 67 624 14 531 q 243 775 119 717 q 272 786 256 781 q 304 797 288 792 q 337 805 321 801 q 364 808 353 808 l 892 808 q 967 788 928 808 q 1038 736 1006 768 q 1090 666 1069 704 q 1110 590 1110 628 l 1110 385 q 1101 351 1110 368 q 1078 319 1092 333 q 1047 297 1064 306 q 1013 288 1029 288 l 399 288 q 358 298 376 288 q 327 325 340 308 q 307 362 314 342 q 300 401 300 382 q 306 440 300 418 q 322 480 311 461 q 349 512 333 499 q 386 525 365 525 l 864 525 q 867 540 864 528 q 868 557 869 553 q 864 564 868 560 q 857 568 860 568 l 393 568 q 334 554 360 568 q 291 518 308 540 q 264 468 274 496 q 254 411 254 440 q 271 319 254 361 q 340 258 288 276 q 358 252 347 256 q 378 246 368 249 q 404 238 389 243 l 1024 238 q 1039 230 1026 238 q 1058 218 1051 222 q 1097 174 1085 197 q 1110 118 1110 150 q 1103 78 1110 99 q 1083 40 1096 57 q 1053 11 1071 22 q 1013 0 1035 0 l 381 0 q 321 9 356 0 q 261 29 286 18 q 156 88 201 51 q 78 173 110 125 q 31 278 47 221 q 14 397 14 335 m 71 396 q 122 213 71 292 q 267 92 174 135 q 315 72 286 82 q 364 63 343 63 l 1013 63 q 1029 69 1022 63 q 1040 85 1036 75 q 1046 105 1044 94 q 1047 122 1047 115 q 1035 160 1047 140 q 1000 181 1024 181 q 374 183 381 181 q 358 188 367 185 q 339 195 349 192 q 324 201 329 199 q 222 285 253 229 q 192 417 192 342 q 209 499 192 460 q 256 567 226 538 q 326 613 286 596 q 410 631 365 631 l 851 631 q 874 626 861 631 q 898 615 886 622 q 918 599 910 608 q 926 579 926 590 l 926 468 l 410 468 q 373 447 389 468 q 357 408 357 426 q 359 392 357 401 q 365 373 361 382 q 376 357 369 364 q 393 350 383 350 l 1013 350 q 1033 363 1021 350 q 1046 385 1046 375 l 1046 597 q 1028 657 1046 629 q 983 706 1010 685 q 924 739 956 726 q 863 751 892 751 l 399 751 q 263 722 324 751 q 160 644 203 693 q 94 531 117 594 q 71 396 71 467 z "},"f":{"ha":1124,"x_min":14,"x_max":1110,"o":"m 1110 983 q 1103 943 1110 964 q 1083 904 1096 922 q 1051 874 1069 886 q 1013 863 1033 863 l 393 863 q 348 851 372 863 q 302 820 324 839 q 266 779 281 801 q 251 735 251 757 l 251 103 q 240 63 251 81 q 210 32 228 44 q 172 13 193 19 q 132 6 150 6 q 94 12 115 6 q 56 29 74 18 q 26 56 39 40 q 14 92 14 72 l 14 768 q 47 887 14 828 q 132 994 81 946 q 245 1072 183 1042 q 364 1101 307 1101 l 1024 1101 q 1059 1089 1043 1101 q 1086 1059 1075 1076 q 1103 1021 1097 1042 q 1110 983 1110 1000 m 1047 988 q 1035 1026 1047 1007 q 1000 1044 1024 1044 l 399 1044 q 278 1019 338 1044 q 174 952 219 994 q 99 853 128 910 q 71 735 71 797 l 71 114 q 90 79 71 90 q 128 68 108 68 q 144 69 133 68 q 165 75 154 71 q 182 86 175 79 q 189 103 189 93 l 189 711 q 208 793 189 754 q 257 862 226 832 q 327 909 288 892 q 410 926 367 926 l 1013 926 q 1029 933 1022 926 q 1040 951 1036 940 q 1046 971 1044 961 q 1047 988 1047 981 m 300 550 q 306 588 300 567 q 322 628 311 610 q 348 658 332 646 q 386 671 364 671 l 1024 671 q 1059 658 1043 671 q 1086 628 1075 646 q 1103 590 1097 611 q 1110 553 1110 569 q 1103 513 1110 533 q 1083 475 1096 492 q 1053 447 1071 458 q 1013 436 1035 436 l 399 436 q 358 447 376 436 q 327 474 340 457 q 307 510 314 490 q 300 550 300 531 m 357 557 q 359 540 357 550 q 365 522 361 531 q 376 506 369 513 q 393 499 383 499 l 1013 499 q 1029 505 1022 499 q 1040 521 1036 511 q 1046 541 1044 531 q 1047 558 1047 551 q 1035 596 1047 578 q 1000 614 1024 614 l 410 614 q 373 595 389 614 q 357 557 357 576 z "},"g":{"ha":1124,"x_min":13,"x_max":1110,"o":"m 13 -165 q 18 -128 13 -149 q 35 -88 24 -107 q 63 -56 47 -69 q 100 -43 79 -43 l 719 -43 q 774 -31 747 -43 q 822 3 801 -18 q 856 50 843 24 q 868 104 868 76 l 868 425 q 858 476 868 450 q 830 524 847 503 q 788 560 813 546 q 736 574 764 574 l 393 574 q 333 560 360 574 q 290 523 307 546 q 263 472 272 500 q 254 414 254 443 q 272 324 254 365 q 340 264 290 282 q 358 258 347 261 q 378 252 368 256 q 404 244 389 249 l 736 244 q 752 237 739 244 q 771 224 765 229 q 810 180 797 203 q 824 124 824 157 q 817 83 824 104 q 797 46 810 63 q 765 18 783 29 q 725 7 747 7 l 381 7 q 270 26 322 7 q 174 80 218 46 q 94 158 129 114 q 38 253 60 203 q 31 271 35 258 q 23 297 26 283 q 17 323 19 311 q 14 339 14 335 l 14 482 q 47 601 14 542 q 131 708 81 660 q 244 785 182 756 q 364 815 306 815 l 771 815 q 897 781 836 815 q 1006 694 958 747 q 1081 576 1053 640 q 1110 449 1110 511 l 1110 69 q 1076 -63 1110 0 q 990 -175 1043 -126 q 869 -252 936 -224 q 736 -281 803 -281 l 111 -281 q 72 -269 90 -281 q 41 -242 54 -258 q 20 -205 28 -225 q 13 -165 13 -185 m 71 -160 q 73 -175 71 -165 q 79 -194 75 -185 q 90 -211 83 -204 q 106 -218 97 -218 l 754 -218 q 851 -194 800 -218 q 946 -132 903 -171 q 1017 -44 989 -93 q 1046 53 1046 4 l 1046 465 q 1042 488 1046 468 q 1035 517 1038 507 q 994 610 1022 567 q 926 688 965 654 q 838 740 886 721 q 736 758 789 758 l 399 758 q 265 730 325 758 q 161 653 204 701 q 94 541 118 604 q 71 407 71 478 q 124 217 71 299 q 278 92 178 136 q 296 85 283 89 q 322 78 308 82 q 347 72 335 75 q 364 69 358 69 l 725 69 q 743 76 736 69 q 753 92 750 82 q 758 111 757 101 q 760 128 760 121 q 749 167 760 147 q 714 188 738 188 l 381 188 q 360 193 378 188 q 335 201 343 199 q 192 414 192 260 q 208 500 192 460 q 253 571 224 540 q 322 619 282 601 q 410 638 363 638 l 719 638 q 794 623 757 638 q 860 583 831 608 q 908 522 889 557 q 926 449 926 488 l 926 75 q 908 13 926 44 q 860 -43 889 -18 q 799 -84 832 -68 q 736 -100 765 -100 l 122 -100 q 87 -121 103 -100 q 71 -160 71 -142 z "},"h":{"ha":1124,"x_min":14,"x_max":1110,"o":"m 135 1101 q 173 1094 153 1101 q 210 1074 193 1088 q 238 1043 226 1061 q 249 1004 249 1025 l 249 103 q 238 63 249 81 q 210 32 226 44 q 172 13 193 19 q 132 6 151 6 q 94 12 115 6 q 56 29 74 18 q 26 56 39 40 q 14 92 14 72 l 14 1015 q 26 1053 14 1038 q 57 1080 39 1069 q 97 1096 75 1090 q 135 1101 118 1101 m 300 694 q 306 732 300 711 q 322 771 311 753 q 348 801 332 789 q 386 814 364 814 l 776 814 q 858 794 815 814 q 932 757 900 774 q 1002 702 969 738 q 1058 624 1035 667 q 1096 535 1082 582 q 1110 447 1110 489 l 1110 103 q 1099 63 1110 81 q 1070 32 1088 44 q 1032 13 1053 19 q 992 6 1011 6 q 936 18 960 6 q 892 57 913 31 q 879 76 888 64 q 871 92 871 89 l 871 425 q 860 476 871 449 q 831 525 849 503 q 788 562 813 547 q 736 576 763 576 l 399 576 q 360 588 378 576 q 328 617 342 600 q 308 656 315 635 q 300 694 300 676 m 132 1044 q 92 1031 114 1044 q 71 999 71 1018 l 71 114 q 90 79 71 90 q 128 68 108 68 q 144 69 135 68 q 164 74 154 71 q 180 85 174 78 q 186 103 186 92 l 186 1010 q 180 1024 186 1018 q 165 1035 174 1031 q 147 1042 156 1040 q 132 1044 138 1044 m 357 700 q 359 685 357 694 q 366 665 361 675 q 378 647 371 654 q 393 639 385 639 l 719 639 q 840 597 788 639 q 914 493 893 556 q 924 466 918 483 q 929 447 929 449 l 929 114 q 949 79 929 90 q 988 68 969 68 q 1005 69 994 68 q 1024 74 1015 71 q 1040 85 1033 78 q 1046 103 1046 92 l 1046 464 q 1043 481 1046 469 q 1037 506 1040 493 q 1030 531 1033 519 q 1024 550 1026 543 q 976 631 1004 593 q 911 697 947 669 q 831 741 875 725 q 736 757 786 757 l 410 757 q 373 738 389 757 q 357 700 357 719 z "},"i":{"ha":263,"x_min":13,"x_max":249,"o":"m 135 813 q 173 806 153 813 q 210 785 193 799 q 238 754 226 772 q 249 715 249 736 l 249 103 q 238 63 249 81 q 209 32 226 44 q 171 13 192 19 q 131 6 150 6 q 94 12 114 6 q 56 29 74 18 q 26 56 39 40 q 14 92 14 72 l 14 726 q 26 765 14 749 q 57 791 39 781 q 97 807 75 801 q 135 813 118 813 m 131 756 q 92 742 114 756 q 71 710 71 729 l 71 114 q 89 79 71 90 q 126 68 107 68 q 144 69 133 68 q 163 74 154 71 q 179 85 172 78 q 186 103 186 92 l 186 721 q 180 735 186 729 q 165 747 174 742 q 146 753 156 751 q 131 756 136 756 m 13 978 q 45 1067 13 1035 q 135 1099 78 1099 q 216 1064 183 1099 q 249 981 249 1029 q 215 897 249 931 q 131 864 182 864 q 47 896 82 864 q 13 978 13 928 m 71 985 q 85 942 71 957 q 126 926 100 926 q 186 985 186 926 q 172 1026 186 1010 q 131 1042 157 1042 q 89 1025 107 1042 q 71 985 71 1008 z "},"j":{"ha":550,"x_min":13,"x_max":536,"o":"m 13 -165 q 28 -95 13 -119 q 69 -60 44 -71 q 125 -44 94 -49 q 185 -31 156 -39 q 240 -7 215 -24 q 278 46 264 10 q 283 62 279 51 q 290 83 286 72 q 295 101 293 93 q 297 110 297 108 l 297 729 q 310 766 297 750 q 343 793 324 782 q 383 810 363 804 q 421 815 404 815 q 460 808 440 815 q 497 788 481 801 q 525 757 514 775 q 536 718 536 739 l 536 86 q 527 26 536 57 q 507 -33 518 -6 q 450 -135 486 -90 q 367 -213 414 -181 q 265 -263 321 -246 q 150 -281 210 -281 q 99 -274 124 -281 q 55 -254 74 -268 q 24 -218 36 -240 q 13 -165 13 -196 m 71 -160 q 80 -194 71 -181 q 106 -218 89 -207 l 151 -218 q 283 -190 222 -218 q 387 -116 343 -162 q 455 -7 431 -69 q 479 126 479 56 l 472 724 q 466 738 472 732 q 451 749 460 744 q 433 756 442 754 q 418 758 424 758 q 399 755 410 758 q 379 745 389 751 q 363 731 369 739 q 356 713 356 722 l 356 86 q 345 38 356 64 q 317 -11 335 13 q 279 -53 300 -35 q 238 -79 258 -72 q 191 -90 219 -86 q 136 -99 163 -93 q 90 -119 110 -106 q 71 -160 71 -132 m 300 982 q 333 1070 300 1038 q 421 1103 365 1103 q 503 1068 471 1103 q 536 985 536 1033 q 503 900 536 933 q 418 867 469 867 q 335 899 369 867 q 300 982 300 932 m 357 988 q 372 945 357 961 q 414 929 386 929 q 474 989 474 929 q 459 1029 474 1014 q 418 1044 444 1044 q 376 1028 394 1044 q 357 988 357 1013 z "},"k":{"ha":1124,"x_min":14,"x_max":1110,"o":"m 135 1096 q 173 1089 153 1096 q 210 1069 193 1082 q 238 1038 226 1056 q 249 999 249 1019 l 249 97 q 238 57 249 75 q 210 26 226 39 q 172 7 193 14 q 132 0 151 0 q 94 6 115 0 q 56 24 74 13 q 26 51 39 35 q 14 86 14 67 l 14 1010 q 26 1048 14 1032 q 57 1074 39 1064 q 97 1090 75 1085 q 135 1096 118 1096 m 875 86 q 874 125 875 97 q 872 183 872 153 q 869 242 871 214 q 868 281 868 269 q 840 363 865 332 q 771 413 815 393 q 749 422 764 415 q 731 428 733 428 l 399 428 q 360 440 378 428 q 328 469 342 451 q 308 506 315 486 q 300 544 300 526 q 306 583 300 561 q 322 622 311 604 q 348 653 332 640 q 386 665 364 665 l 754 665 q 820 653 782 665 q 881 631 858 640 q 967 580 926 613 q 1040 506 1008 547 q 1091 415 1072 464 q 1110 315 1110 367 l 1110 97 q 1099 57 1110 75 q 1070 26 1088 39 q 1032 7 1053 14 q 992 0 1011 0 q 919 23 951 0 q 875 86 886 46 m 132 1039 q 92 1026 114 1039 q 71 993 71 1013 l 71 108 q 90 74 71 85 q 128 63 108 63 q 144 64 135 63 q 164 69 154 65 q 180 79 174 72 q 186 97 186 86 l 186 1004 q 180 1019 186 1013 q 165 1030 174 1025 q 147 1037 156 1035 q 132 1039 138 1039 m 357 551 q 359 536 357 546 q 366 516 361 526 q 378 498 371 506 q 393 490 385 490 l 714 490 q 783 475 746 490 q 853 435 821 460 q 908 377 886 410 q 929 310 929 344 l 929 108 q 949 74 929 85 q 988 63 969 63 q 1005 64 994 63 q 1024 69 1015 65 q 1040 79 1033 72 q 1046 97 1046 86 l 1046 333 q 1015 439 1046 389 q 935 526 983 489 q 831 586 888 564 q 725 608 775 608 l 410 608 q 373 590 389 608 q 357 551 357 571 m 708 1096 q 747 1089 726 1096 q 783 1069 767 1082 q 811 1038 800 1056 q 822 999 822 1019 l 822 814 q 811 774 822 792 q 783 743 800 756 q 746 724 767 731 q 706 717 725 717 q 668 723 689 717 q 630 741 647 729 q 600 768 613 753 q 588 803 588 783 l 588 1010 q 600 1048 588 1032 q 631 1074 613 1064 q 670 1090 649 1085 q 708 1096 692 1096 m 706 1039 q 666 1026 688 1039 q 644 993 644 1013 l 644 826 q 663 791 644 803 q 701 779 682 779 q 718 781 708 779 q 738 786 728 782 q 753 797 747 790 q 760 814 760 803 l 760 1004 q 753 1019 760 1013 q 738 1030 747 1025 q 720 1037 729 1035 q 706 1039 711 1039 z "},"l":{"ha":263,"x_min":14,"x_max":249,"o":"m 135 1093 q 173 1086 153 1093 q 210 1066 193 1079 q 238 1035 226 1053 q 249 996 249 1017 l 249 97 q 238 57 249 75 q 209 26 226 39 q 171 7 192 14 q 131 0 150 0 q 94 6 114 0 q 56 24 74 13 q 26 51 39 35 q 14 86 14 67 l 14 1007 q 26 1045 14 1029 q 57 1072 39 1061 q 97 1088 75 1082 q 135 1093 118 1093 m 131 1036 q 92 1023 114 1036 q 71 990 71 1010 l 71 108 q 89 74 71 85 q 126 63 107 63 q 144 64 133 63 q 163 69 154 65 q 179 79 172 72 q 186 97 186 86 l 186 1001 q 180 1016 186 1010 q 165 1027 174 1022 q 146 1034 156 1032 q 131 1036 136 1036 z "},"m":{"ha":1124,"x_min":14,"x_max":1110,"o":"m 992 0 q 936 13 960 0 q 892 51 913 25 q 879 71 888 58 q 871 86 871 83 l 871 431 q 858 480 871 456 q 826 524 846 504 q 781 556 807 544 q 731 568 756 568 l 251 568 l 251 97 q 240 57 251 75 q 210 26 228 39 q 172 7 193 14 q 132 0 150 0 q 94 6 115 0 q 56 24 74 13 q 26 51 39 35 q 14 86 14 67 l 14 722 q 22 750 14 735 q 44 778 31 765 q 72 800 57 792 q 100 808 88 808 l 754 808 q 881 778 818 808 q 995 697 944 747 q 1078 585 1046 647 q 1110 458 1110 522 l 1110 97 q 1099 57 1110 75 q 1070 26 1088 39 q 1032 7 1053 14 q 992 0 1011 0 m 565 522 q 603 515 583 522 q 640 495 624 508 q 668 464 657 482 q 679 425 679 446 l 679 97 q 668 57 679 75 q 640 26 657 39 q 601 7 622 14 q 561 0 581 0 q 524 6 544 0 q 487 24 504 13 q 457 51 469 35 q 444 86 444 67 l 444 436 q 457 474 444 458 q 488 501 469 490 q 527 517 506 511 q 565 522 549 522 m 988 63 q 1005 64 994 63 q 1024 69 1015 65 q 1040 79 1033 72 q 1046 97 1046 86 l 1046 476 q 1015 582 1046 532 q 936 669 983 632 q 832 729 889 707 q 725 751 775 751 l 122 751 q 89 736 107 751 q 71 706 71 721 l 71 108 q 90 74 71 85 q 128 63 108 63 q 144 64 133 63 q 165 69 154 65 q 182 81 175 74 q 189 97 189 88 l 189 631 l 714 631 q 785 617 747 631 q 854 578 822 603 q 908 522 886 554 q 929 453 929 490 l 929 108 q 949 74 929 85 q 988 63 969 63 m 561 465 q 523 452 544 465 q 501 419 501 439 l 501 108 q 519 74 501 85 q 557 63 538 63 q 574 64 564 63 q 594 69 585 65 q 610 79 603 72 q 617 97 617 86 l 617 431 q 610 445 617 439 q 595 456 604 451 q 576 463 586 461 q 561 465 567 465 z "},"n":{"ha":1124,"x_min":14,"x_max":1110,"o":"m 992 0 q 936 13 960 0 q 892 51 913 25 q 879 71 888 58 q 871 86 871 83 l 871 431 q 858 480 871 456 q 826 524 846 504 q 781 556 807 544 q 731 568 756 568 l 251 568 l 251 97 q 240 57 251 75 q 210 26 228 39 q 172 7 193 14 q 132 0 150 0 q 94 6 115 0 q 56 24 74 13 q 26 51 39 35 q 14 86 14 67 l 14 722 q 22 750 14 735 q 44 778 31 765 q 72 800 57 792 q 100 808 88 808 l 754 808 q 882 778 818 808 q 997 697 946 747 q 1078 585 1047 647 q 1110 458 1110 522 l 1110 97 q 1099 57 1110 75 q 1070 26 1088 39 q 1032 7 1053 14 q 992 0 1011 0 m 988 63 q 1005 64 994 63 q 1024 69 1015 65 q 1040 79 1033 72 q 1046 97 1046 86 l 1046 476 q 1015 582 1046 532 q 936 669 983 632 q 832 729 889 707 q 725 751 775 751 l 122 751 q 89 736 107 751 q 71 706 71 721 l 71 108 q 90 74 71 85 q 128 63 108 63 q 144 64 133 63 q 165 69 154 65 q 182 81 175 74 q 189 97 189 88 l 189 631 l 714 631 q 785 617 747 631 q 854 578 822 603 q 908 522 886 554 q 929 453 929 490 l 929 108 q 949 74 929 85 q 988 63 969 63 z "},"o":{"ha":1124,"x_min":14,"x_max":1110,"o":"m 14 397 q 67 624 14 531 q 243 775 119 717 q 272 786 256 781 q 304 797 288 792 q 337 805 321 801 q 364 808 353 808 l 754 808 q 819 798 785 808 q 881 775 853 788 q 1052 624 994 721 q 1110 401 1110 528 q 846 24 1110 125 q 792 7 821 14 q 736 0 764 0 l 381 0 q 321 9 356 0 q 261 29 286 18 q 156 88 201 51 q 78 173 110 125 q 31 278 47 221 q 14 397 14 335 m 71 396 q 122 213 71 292 q 267 92 174 135 q 314 72 288 82 q 364 63 340 63 l 754 63 q 805 72 774 63 q 857 92 836 82 q 1001 215 949 135 q 1053 399 1053 294 q 1040 502 1053 451 q 1001 595 1028 553 q 936 671 975 638 q 846 722 897 704 q 787 742 818 733 q 725 751 756 751 l 399 751 q 263 722 324 751 q 159 644 201 693 q 94 531 117 594 q 71 396 71 467 m 192 417 q 209 499 192 460 q 256 567 226 538 q 326 613 286 596 q 410 631 365 631 l 714 631 q 801 613 763 631 q 868 564 840 594 q 911 493 896 533 q 926 407 926 453 q 898 283 926 336 q 800 201 869 229 q 769 190 792 197 q 736 183 747 183 l 381 183 l 358 189 q 192 417 192 239 m 254 411 q 263 347 254 378 q 291 292 272 315 q 338 254 310 268 q 404 240 365 240 l 719 240 q 782 255 754 240 q 829 292 810 269 q 859 345 849 315 q 869 407 869 375 q 860 465 869 436 q 833 516 850 493 q 790 553 815 539 q 731 568 764 568 l 393 568 q 335 554 361 568 q 292 518 310 540 q 264 467 274 496 q 254 411 254 439 z "},"p":{"ha":1124,"x_min":14,"x_max":1110,"o":"m 1110 411 q 1053 189 1110 279 q 875 40 996 99 q 807 17 844 26 q 736 7 769 7 l 399 7 q 358 17 376 7 q 327 44 340 28 q 307 81 314 61 q 300 121 300 101 q 306 159 300 138 q 322 199 311 181 q 349 231 333 218 q 386 244 365 244 q 727 247 719 244 q 745 252 735 249 q 765 258 756 256 q 782 264 775 261 q 849 324 829 281 q 869 411 869 367 q 860 471 869 442 q 831 523 850 500 q 786 560 813 546 q 725 574 760 574 l 386 574 q 338 561 363 574 q 294 528 314 549 q 263 484 275 508 q 251 436 251 460 l 251 -183 q 240 -224 251 -206 q 210 -254 228 -242 q 172 -274 193 -267 q 132 -281 150 -281 q 94 -274 115 -281 q 56 -257 74 -268 q 26 -230 39 -246 q 14 -194 14 -214 l 14 460 q 43 581 14 518 q 119 695 72 643 q 226 781 167 747 q 347 815 286 815 l 754 815 q 819 805 785 815 q 881 781 853 794 q 1051 632 993 728 q 1110 411 1110 536 m 1047 410 q 1035 512 1047 463 q 999 603 1024 561 q 937 677 975 644 q 846 729 899 710 q 787 749 818 739 q 725 758 756 758 l 381 758 q 262 730 318 758 q 163 656 206 701 q 96 551 121 610 q 71 431 71 492 l 71 -172 q 90 -207 71 -196 q 128 -218 108 -218 q 144 -217 133 -218 q 165 -211 154 -215 q 182 -200 175 -207 q 189 -183 189 -193 q 190 426 189 419 q 194 442 192 433 q 199 461 196 451 q 203 476 201 471 q 276 593 224 549 q 404 638 328 638 l 714 638 q 803 619 764 638 q 870 571 843 601 q 912 499 897 540 q 926 411 926 457 q 898 288 926 342 q 800 207 869 233 q 783 201 793 204 q 763 195 774 199 q 745 190 753 192 q 736 188 738 188 l 410 188 q 373 167 389 188 q 357 128 357 146 q 359 111 357 121 q 365 92 361 101 q 376 76 369 83 q 393 69 383 69 l 754 69 q 776 73 761 69 q 806 81 790 76 q 836 91 822 86 q 857 99 850 96 q 1001 223 956 139 q 1047 410 1047 307 z "},"q":{"ha":1124,"x_min":14,"x_max":1110,"o":"m 254 414 q 272 324 254 365 q 340 264 290 282 q 358 258 347 261 q 378 252 368 256 q 404 244 389 249 l 736 244 q 752 237 739 244 q 771 224 765 229 q 810 180 797 203 q 824 124 824 157 q 817 83 824 104 q 797 46 810 63 q 765 18 783 29 q 725 7 747 7 l 381 7 q 270 26 322 7 q 174 80 218 46 q 94 158 129 114 q 38 253 60 203 q 31 271 35 258 q 23 297 26 283 q 17 323 19 311 q 14 339 14 335 l 14 482 q 47 601 14 542 q 132 708 81 660 q 245 785 183 756 q 364 815 307 815 l 771 815 q 897 781 836 815 q 1006 694 958 747 q 1081 576 1053 640 q 1110 449 1110 511 l 1110 -183 q 1099 -224 1110 -206 q 1070 -254 1088 -242 q 1032 -274 1053 -267 q 992 -281 1011 -281 q 936 -268 960 -281 q 892 -229 913 -256 q 879 -210 888 -222 q 871 -194 871 -197 l 871 425 q 860 476 871 450 q 830 524 849 503 q 787 560 811 546 q 736 574 763 574 l 393 574 q 333 560 360 574 q 290 523 307 546 q 263 472 272 500 q 254 414 254 443 m 192 414 q 208 500 192 460 q 253 571 224 540 q 322 619 282 601 q 410 638 363 638 l 719 638 q 840 597 789 638 q 914 494 892 557 q 924 467 918 485 q 929 449 929 450 l 929 -172 q 949 -207 929 -196 q 988 -218 969 -218 q 1005 -217 994 -218 q 1024 -212 1015 -215 q 1040 -201 1033 -208 q 1046 -183 1046 -194 l 1046 465 q 1019 572 1046 519 q 948 667 992 625 q 851 733 904 708 q 743 758 797 758 l 399 758 q 265 730 325 758 q 161 653 204 701 q 94 541 118 604 q 71 407 71 478 q 121 223 71 303 q 267 99 171 143 q 315 79 286 89 q 364 69 343 69 l 725 69 q 743 76 736 69 q 753 92 750 82 q 758 111 757 101 q 760 128 760 121 q 749 167 760 147 q 714 188 738 188 l 381 188 q 360 193 378 188 q 335 201 343 199 q 192 414 192 260 z "},"r":{"ha":1124,"x_min":14,"x_max":1110,"o":"m 1110 426 q 1081 332 1110 372 q 992 292 1051 292 q 927 306 950 292 q 892 344 904 321 q 876 395 881 367 q 865 452 871 424 q 845 505 858 481 q 806 544 832 529 q 767 564 789 554 q 725 574 744 574 l 251 574 l 251 103 q 240 63 251 81 q 210 32 228 44 q 172 13 193 19 q 132 6 150 6 q 94 12 115 6 q 56 29 74 18 q 26 56 39 40 q 14 92 14 72 l 14 728 q 22 756 14 740 q 44 784 31 771 q 72 806 57 797 q 100 814 88 814 l 754 814 q 803 807 778 814 q 851 792 829 800 q 1040 651 969 747 q 1110 426 1110 554 m 1047 436 q 1022 558 1047 500 q 952 661 996 617 q 850 731 908 706 q 725 757 792 757 l 122 757 q 89 742 107 757 q 71 711 71 726 l 71 114 q 90 79 71 90 q 128 68 108 68 q 144 69 133 68 q 165 75 154 71 q 182 86 175 79 q 189 103 189 93 l 189 636 l 714 636 q 781 625 747 636 q 842 594 814 614 q 892 547 871 574 q 921 488 913 519 q 926 445 925 468 q 932 402 928 422 q 948 368 936 382 q 988 354 960 354 q 1024 361 1007 354 q 1046 390 1040 368 q 1047 413 1047 396 q 1047 436 1047 431 z "},"s":{"ha":1124,"x_min":13,"x_max":1110,"o":"m 13 121 q 18 158 13 138 q 35 198 24 179 q 63 230 47 217 q 100 243 79 243 q 727 246 719 243 q 745 251 735 249 q 765 258 756 254 q 782 264 775 261 q 803 273 792 267 q 817 289 814 279 l 111 289 q 80 298 96 289 q 51 320 64 307 q 28 349 38 333 q 14 378 18 365 l 14 428 q 78 644 14 551 q 254 786 142 736 q 271 792 257 788 q 289 797 285 796 q 308 802 296 799 q 333 808 321 806 q 353 812 344 810 q 364 814 363 814 l 1024 814 q 1059 801 1043 814 q 1086 772 1075 789 q 1103 734 1097 754 q 1110 697 1110 714 q 1103 657 1110 678 q 1083 618 1096 636 q 1051 588 1069 600 q 1013 576 1033 576 l 393 576 q 370 572 383 576 q 344 561 357 568 q 319 546 331 554 q 301 531 307 538 l 1024 531 q 1039 523 1026 531 q 1058 510 1051 515 q 1101 457 1092 483 q 1110 390 1110 431 q 1081 246 1110 315 q 1000 123 1051 176 q 881 38 949 69 q 736 6 813 6 l 111 6 q 72 17 90 6 q 41 44 54 28 q 20 81 28 61 q 13 121 13 101 m 71 126 q 73 111 71 121 q 79 92 75 101 q 90 75 83 82 q 106 68 97 68 l 754 68 q 805 78 774 68 q 857 97 836 88 q 997 213 946 138 q 1047 388 1047 288 q 1047 411 1047 393 q 1046 436 1047 431 q 1028 460 1039 447 q 1000 474 1017 474 l 206 474 q 225 538 206 508 q 275 590 244 568 q 341 626 306 613 q 410 639 376 639 l 1013 639 q 1029 646 1022 639 q 1040 663 1036 653 q 1046 684 1044 674 q 1047 701 1047 694 q 1035 739 1047 721 q 1000 757 1024 757 l 399 757 q 269 729 329 757 q 165 655 208 701 q 96 547 121 608 q 71 418 71 485 q 73 401 71 413 q 79 380 75 390 q 90 361 83 369 q 106 353 96 353 l 918 353 q 901 292 918 322 q 856 239 883 263 q 797 201 829 215 q 736 186 765 186 l 122 186 q 87 165 103 186 q 71 126 71 144 z "},"t":{"ha":550,"x_min":14,"x_max":536,"o":"m 135 1101 q 173 1094 153 1101 q 210 1074 193 1086 q 240 1043 228 1061 q 251 1004 251 1025 l 251 817 l 450 817 q 465 809 453 817 q 485 797 478 801 q 524 753 511 776 q 536 697 536 729 q 529 657 536 678 q 509 618 522 636 q 478 588 496 600 q 439 576 460 576 l 254 576 l 254 258 l 267 243 l 450 243 q 465 235 453 243 q 485 224 478 228 q 524 179 511 203 q 536 124 536 156 q 529 83 536 104 q 510 45 522 63 q 479 17 497 28 q 439 6 461 6 l 238 6 q 160 25 200 6 q 88 76 121 44 q 35 146 56 107 q 14 224 14 185 l 14 1015 q 26 1053 14 1038 q 57 1080 39 1069 q 97 1096 75 1090 q 135 1101 118 1101 m 132 1044 q 92 1031 114 1044 q 71 999 71 1018 l 71 253 q 83 192 71 224 q 117 132 96 160 q 166 86 138 104 q 226 68 194 68 l 439 68 q 456 74 449 68 q 467 90 463 81 q 472 110 471 100 q 474 128 474 121 q 462 166 474 146 q 426 186 450 186 l 249 186 q 224 197 235 186 q 206 221 214 207 q 195 250 199 235 q 192 275 192 265 l 192 639 l 439 639 q 456 646 449 639 q 467 663 463 653 q 472 684 471 674 q 474 701 474 694 q 462 740 474 719 q 426 760 450 760 l 189 760 l 189 1010 q 182 1024 189 1018 q 165 1035 175 1031 q 147 1042 156 1039 q 132 1044 138 1044 z "},"u":{"ha":1124,"x_min":14,"x_max":1110,"o":"m 135 815 q 173 808 153 815 q 210 787 193 800 q 240 756 228 774 q 251 717 251 738 l 251 390 q 264 335 251 361 q 297 290 276 310 q 344 258 318 269 q 399 246 371 246 l 719 246 q 773 258 746 246 q 822 290 800 269 q 858 336 844 310 q 871 390 871 363 l 871 728 q 884 765 871 749 q 917 792 897 781 q 957 810 936 804 q 994 815 978 815 q 1034 808 1014 815 q 1071 787 1054 800 q 1099 756 1088 774 q 1110 717 1110 738 l 1110 356 q 1076 223 1110 286 q 990 111 1043 160 q 869 34 936 63 q 736 6 803 6 l 364 6 q 238 37 300 6 q 125 119 175 68 q 44 233 75 169 q 14 361 14 297 l 14 728 q 26 767 14 750 q 57 794 39 783 q 97 810 75 804 q 135 815 118 815 m 132 757 q 92 744 114 757 q 71 711 71 732 l 71 390 q 93 283 71 339 q 153 178 115 226 q 242 99 192 131 q 347 68 292 68 l 754 68 q 853 92 801 68 q 948 156 906 117 q 1018 244 990 194 q 1046 344 1046 294 l 1046 722 q 1040 737 1046 731 q 1024 748 1033 743 q 1006 755 1015 753 q 992 757 997 757 q 973 753 983 757 q 953 744 963 750 q 936 729 943 738 q 929 711 929 721 l 929 361 q 910 300 929 331 q 861 244 890 269 q 799 204 832 219 q 736 189 765 189 l 369 189 q 299 210 332 189 q 242 262 267 231 q 203 331 218 293 q 189 401 189 368 l 189 722 q 182 737 189 731 q 165 747 175 743 q 147 754 156 751 q 132 757 138 757 z "},"v":{"ha":1124,"x_min":13,"x_max":1110,"o":"m 13 694 q 45 783 13 750 q 135 815 78 815 q 193 800 169 815 q 238 757 217 785 l 553 339 q 556 335 554 338 q 558 332 558 333 l 563 332 l 565 332 l 897 774 q 941 807 917 799 q 994 815 965 815 q 1077 781 1044 815 q 1110 697 1110 746 q 1106 663 1110 679 q 1092 631 1103 646 l 663 57 q 561 6 624 6 q 502 20 526 6 q 456 63 478 35 l 43 614 q 20 651 28 633 q 13 694 13 669 m 71 700 q 74 678 71 689 q 83 660 76 668 l 513 86 q 533 71 522 74 q 557 68 543 68 q 591 73 581 68 q 617 97 601 78 l 1029 649 q 1044 673 1040 664 q 1047 701 1047 682 q 1033 742 1047 726 q 992 757 1018 757 q 938 728 958 757 l 560 228 l 175 740 q 156 753 168 749 q 132 757 143 757 q 90 741 108 757 q 71 700 71 725 z "},"w":{"ha":1124,"x_min":14,"x_max":1110,"o":"m 135 815 q 173 808 153 815 q 210 787 193 800 q 240 756 228 774 q 251 717 251 738 l 251 246 l 719 246 q 773 258 746 246 q 822 290 800 269 q 858 336 844 310 q 871 390 871 363 l 871 728 q 884 765 871 749 q 917 792 897 781 q 957 810 936 804 q 994 815 978 815 q 1034 808 1014 815 q 1071 787 1054 800 q 1099 756 1088 774 q 1110 717 1110 738 l 1110 350 q 1076 222 1110 283 q 988 112 1042 160 q 867 35 933 64 q 736 6 800 6 l 111 6 q 80 13 97 6 q 48 33 63 21 q 24 61 33 46 q 14 92 14 76 l 14 728 q 26 767 14 750 q 57 794 39 783 q 97 810 75 804 q 135 815 118 815 m 132 757 q 92 744 114 757 q 71 711 71 732 l 71 114 q 82 86 71 104 q 106 68 93 68 l 754 68 q 851 92 800 68 q 946 155 903 117 q 1017 242 989 193 q 1046 339 1046 290 l 1046 722 q 1040 737 1046 731 q 1024 748 1033 743 q 1006 755 1015 753 q 992 757 997 757 q 973 753 983 757 q 953 744 963 750 q 936 729 943 738 q 929 711 929 721 l 929 361 q 910 300 929 331 q 861 244 890 269 q 799 204 832 219 q 736 189 765 189 l 189 189 l 189 722 q 182 737 189 731 q 165 747 175 743 q 147 754 156 751 q 132 757 138 757 m 565 815 q 603 808 583 815 q 640 787 624 800 q 668 756 657 774 q 679 717 679 738 l 679 390 q 668 350 679 368 q 640 319 657 332 q 601 299 622 306 q 561 292 581 292 q 524 298 544 292 q 487 316 504 304 q 457 343 469 328 q 444 378 444 358 l 444 728 q 457 767 444 750 q 488 794 469 783 q 527 810 506 804 q 565 815 549 815 m 561 757 q 523 744 544 757 q 501 711 501 732 l 501 401 q 519 366 501 378 q 557 354 538 354 q 574 356 564 354 q 594 361 585 357 q 610 372 603 365 q 617 390 617 379 l 617 722 q 610 737 617 731 q 595 748 604 743 q 576 755 586 753 q 561 757 567 757 z "},"x":{"ha":1124,"x_min":13,"x_max":1110,"o":"m 13 121 q 17 163 13 142 q 38 200 21 185 l 197 361 q 235 381 214 378 q 278 385 257 385 q 360 350 328 385 q 393 267 393 315 q 390 232 393 251 q 375 200 386 213 l 197 22 q 167 8 186 11 q 132 6 147 6 q 48 38 83 6 q 13 121 13 71 m 13 694 q 46 783 13 750 q 135 815 79 815 q 151 815 142 815 q 163 814 163 815 q 184 805 167 814 q 208 792 201 796 l 1053 229 q 1110 124 1110 189 q 1076 39 1110 72 q 992 6 1043 6 q 926 22 953 6 l 65 596 q 13 694 13 632 m 71 126 q 85 83 71 99 q 128 68 100 68 q 144 68 135 68 q 163 75 156 68 l 324 235 q 331 253 331 242 q 331 271 331 264 q 316 312 331 296 q 275 328 301 328 q 256 325 267 328 q 238 315 244 322 l 83 161 q 73 145 75 153 q 71 126 71 138 m 71 700 q 74 675 71 689 q 89 654 78 661 l 967 68 l 985 68 q 1047 128 1047 68 q 1044 153 1047 142 q 1029 172 1042 164 l 169 746 q 132 757 151 757 q 90 741 108 757 q 71 700 71 725 m 731 550 q 734 594 731 572 q 754 631 738 615 l 914 792 q 952 811 931 807 q 994 815 974 815 q 1077 781 1044 815 q 1110 697 1110 746 q 1107 662 1110 682 q 1092 631 1104 642 l 914 453 q 883 438 903 442 q 849 435 864 435 q 765 467 800 435 q 731 550 731 500 m 788 557 q 802 514 788 529 q 844 499 817 499 q 863 498 851 499 q 881 504 874 497 l 1040 665 q 1047 683 1047 672 q 1047 701 1047 694 q 1033 742 1047 726 q 992 757 1018 757 q 972 755 983 757 q 954 746 961 753 l 800 590 q 790 574 792 582 q 788 557 788 567 z "},"y":{"ha":1124,"x_min":13,"x_max":1110,"o":"m 13 -165 q 18 -128 13 -149 q 35 -88 24 -107 q 63 -56 47 -69 q 100 -43 79 -43 l 731 -43 q 782 -28 757 -43 q 827 8 807 -14 q 859 58 847 31 q 871 110 871 85 l 871 729 q 884 766 871 750 q 917 793 897 782 q 957 810 936 804 q 994 815 978 815 q 1034 808 1014 815 q 1071 788 1054 801 q 1099 757 1088 775 q 1110 718 1110 739 l 1110 86 q 1081 -46 1110 19 q 1003 -163 1051 -111 q 891 -248 954 -215 q 760 -281 828 -281 l 111 -281 q 72 -269 90 -281 q 41 -242 54 -258 q 20 -205 28 -225 q 13 -165 13 -185 m 71 -160 q 73 -175 71 -165 q 79 -194 75 -185 q 90 -211 83 -204 q 106 -218 97 -218 l 771 -218 q 792 -213 772 -218 q 822 -206 811 -208 q 831 -203 825 -206 q 840 -200 838 -201 q 997 -71 939 -156 q 1053 126 1054 14 l 1046 724 q 1040 738 1046 732 q 1024 749 1033 744 q 1006 756 1015 754 q 992 758 997 758 q 973 755 983 758 q 953 745 963 751 q 936 731 943 739 q 929 713 929 722 l 929 86 q 913 27 929 60 q 870 -33 896 -6 q 814 -81 844 -61 q 754 -100 783 -100 l 122 -100 q 87 -121 103 -100 q 71 -160 71 -142 m 135 815 q 173 808 153 815 q 210 788 193 800 q 240 757 228 775 q 251 718 251 739 l 251 390 q 264 337 251 363 q 297 290 276 311 q 344 257 318 269 q 399 244 371 244 l 736 244 q 752 237 739 244 q 771 224 765 229 q 810 180 797 203 q 824 124 824 157 q 817 83 824 104 q 797 46 810 63 q 765 18 783 29 q 725 7 747 7 l 364 7 q 305 16 338 7 q 249 35 272 25 q 106 143 158 72 q 25 304 53 214 q 18 334 22 314 q 14 363 14 354 l 14 729 q 26 767 14 751 q 57 794 39 783 q 97 810 75 804 q 135 815 118 815 m 132 758 q 92 745 114 758 q 71 713 71 732 l 71 390 q 93 284 71 340 q 153 180 115 228 q 242 101 192 132 q 347 69 292 69 l 725 69 q 743 76 736 69 q 753 92 750 82 q 758 111 757 101 q 760 128 760 121 q 749 167 760 147 q 714 188 738 188 l 369 188 q 297 210 329 188 q 242 266 265 232 q 205 340 218 300 q 192 414 192 379 q 191 475 192 431 q 189 569 190 519 q 187 662 188 618 q 186 724 186 706 q 164 749 176 739 q 132 758 151 758 z "},"z":{"ha":1124,"x_min":13,"x_max":1110,"o":"m 13 115 q 21 169 13 143 q 54 213 29 196 l 576 563 l 582 571 l 111 571 q 72 583 90 571 q 41 612 54 594 q 20 650 28 629 q 13 689 13 671 q 18 726 13 706 q 34 765 24 747 q 61 796 44 783 q 100 808 78 808 l 1024 808 q 1059 796 1043 808 q 1086 766 1075 783 q 1103 728 1097 749 q 1110 692 1110 708 q 1058 590 1110 626 l 536 238 l 1024 238 q 1039 230 1026 238 q 1058 218 1051 222 q 1097 174 1085 197 q 1110 118 1110 150 q 1103 78 1110 99 q 1083 40 1096 57 q 1053 11 1071 22 q 1013 0 1035 0 l 111 0 q 72 11 90 0 q 41 39 54 22 q 20 76 28 56 q 13 115 13 96 m 71 121 q 73 106 71 115 q 79 86 75 96 q 90 69 83 76 q 106 63 97 63 l 1013 63 q 1029 69 1022 63 q 1040 85 1036 75 q 1046 105 1044 94 q 1047 122 1047 115 q 1035 160 1047 140 q 1000 181 1024 181 l 340 181 l 1018 636 q 1042 663 1038 650 q 1047 696 1047 675 q 1035 733 1047 715 q 1000 751 1024 751 l 122 751 q 86 733 101 751 q 71 694 71 714 q 73 679 71 689 q 80 659 75 669 q 91 641 85 649 q 106 633 97 633 l 789 633 l 94 167 q 71 121 71 151 z "},"":{"ha":0,"x_min":0,"x_max":0,"o":""},"":{"ha":694,"x_min":0,"x_max":0,"o":""}}}
